<?xml version="1.0" standalone="no"?>
<!DOCTYPE svg PUBLIC "-//W3C//DTD SVG 20010904//EN"
 "http://www.w3.org/TR/2001/REC-SVG-20010904/DTD/svg10.dtd">
<svg version="1.0" xmlns="http://www.w3.org/2000/svg"
 width="100.000000pt" height="100.000000pt" viewBox="0 0 100.000000 100.000000"
 preserveAspectRatio="xMidYMid meet">

<g transform="translate(0.000000,100.000000) scale(0.100000,-0.100000)"
fill="#000000" stroke="none">
<path d="M497 910 c-50 -40 -42 -121 16 -145 l31 -13 -31 -16 c-42 -21 -55
-64 -52 -176 l2 -92 -144 -144 -144 -144 -47 0 c-43 0 -48 -2 -54 -27 -12 -48
4 -58 101 -61 55 -2 92 1 101 9 18 15 18 66 0 76 -11 6 9 32 80 106 52 53 94
94 94 89 0 -4 -16 -55 -35 -112 -19 -57 -35 -116 -35 -130 0 -51 60 -79 93
-42 8 9 27 55 42 101 30 93 32 92 60 -14 10 -38 25 -78 33 -87 22 -26 68 -23
87 6 15 23 14 33 -19 160 -45 170 -48 242 -10 277 38 35 48 57 33 75 -10 12
-9 18 3 31 15 14 19 14 46 -2 53 -32 83 -114 64 -180 -7 -25 -14 -31 -48 -35
l-39 -5 0 -145 0 -145 100 0 100 0 0 145 0 145 -32 3 -31 3 5 54 c11 101 -8
137 -118 231 -22 20 -29 18 -66 -18 -18 -17 -34 -30 -35 -27 -2 2 -10 18 -18
34 -9 17 -26 34 -38 40 -25 11 -29 25 -8 25 22 0 56 49 56 82 0 40 -48 88 -88
88 -16 0 -41 -9 -55 -20z m105 -17 c27 -24 24 -87 -4 -107 -71 -50 -159 43
-98 104 24 24 77 26 102 3z m-70 -175 c-21 -21 -13 -45 27 -81 l39 -35 -59
-58 -59 -58 0 99 c0 88 2 101 22 122 12 13 26 23 32 23 6 0 5 -5 -2 -12z m73
-8 c10 -11 16 -20 13 -20 -3 0 -13 9 -23 20 -10 11 -16 20 -13 20 3 0 13 -9
23 -20z m27 -57 c32 -32 58 -62 58 -68 0 -18 -97 -108 -109 -101 -17 11 -13
24 21 67 l32 40 -53 49 c-51 47 -59 70 -23 70 9 0 42 -26 74 -57z m98 39 c0
-5 -13 -21 -30 -37 -35 -33 -42 -14 -8 22 22 23 38 30 38 15z m57 -38 c18 -14
40 -39 49 -57 17 -33 22 -115 10 -155 -12 -38 -20 -16 -17 48 3 72 -18 122
-65 154 -19 13 -31 26 -27 29 10 10 13 9 50 -19z m-212 -116 c-82 -92 -346
-358 -355 -358 -5 0 -10 3 -10 7 0 11 393 403 398 398 3 -3 -12 -24 -33 -47z
m-30 -80 c-19 -14 -25 -29 -25 -56 l0 -36 -22 22 -22 22 39 39 c21 22 42 38
47 35 5 -3 -3 -15 -17 -26z m75 6 c0 -8 -5 -12 -10 -9 -6 4 -8 11 -5 16 9 14
15 11 15 -7z m-13 -26 c12 -16 83 -288 83 -317 0 -11 -9 -25 -20 -31 -30 -16
-58 4 -69 48 -5 20 -24 92 -42 159 -26 100 -29 126 -19 138 15 18 54 20 67 3z
m308 -73 l0 -40 -87 -3 -88 -3 0 46 0 46 88 -3 87 -3 0 -40z m-380 -36 c3 -8
-12 -65 -32 -125 -32 -92 -42 -110 -60 -112 -13 -2 -23 -2 -23 0 0 3 13 43 29
91 17 48 26 87 21 87 -5 0 -21 -38 -36 -85 -19 -57 -31 -82 -38 -75 -7 7 4 55
34 144 l44 134 27 -21 c16 -12 31 -29 34 -38z m380 -30 c11 -17 -3 -23 -20 -9
-13 11 -19 11 -33 -3 -15 -16 -15 -18 1 -34 15 -16 18 -16 35 1 19 16 19 15
21 -43 1 -35 -4 -63 -10 -67 -7 -4 -46 -7 -88 -8 l-76 0 -3 87 -3 87 85 0 c49
0 88 -4 91 -11z m-25 -29 c0 -5 -4 -10 -10 -10 -5 0 -10 5 -10 10 0 6 5 10 10
10 6 0 10 -4 10 -10z m-625 -110 c4 -6 -20 -10 -64 -10 -41 0 -71 -4 -71 -10
0 -6 30 -10 70 -10 40 0 70 -4 70 -10 0 -6 -37 -10 -90 -10 -88 0 -90 1 -90
23 0 13 3 27 7 30 10 11 161 8 168 -3z"/>
<path d="M598 345 c5 -28 22 -44 22 -21 0 21 -11 46 -20 46 -4 0 -5 -11 -2
-25z"/>
</g>
</svg>
