<?xml version="1.0" standalone="no"?>
<!DOCTYPE svg PUBLIC "-//W3C//DTD SVG 20010904//EN"
 "http://www.w3.org/TR/2001/REC-SVG-20010904/DTD/svg10.dtd">
<svg version="1.0" xmlns="http://www.w3.org/2000/svg"
 width="100.000000pt" height="100.000000pt" viewBox="0 0 100.000000 100.000000"
 preserveAspectRatio="xMidYMid meet">

<g transform="translate(0.000000,100.000000) scale(0.100000,-0.100000)"
fill="#000000" stroke="none">
<path d="M590 636 c0 -176 -2 -206 -15 -206 -13 0 -15 24 -15 155 0 118 -3
155 -12 155 -7 -1 -69 -24 -138 -53 l-125 -52 -3 -102 -3 -102 -87 -3 -87 -3
0 -105 0 -105 27 -3 c20 -2 28 1 28 12 0 9 -7 16 -15 16 -12 0 -15 16 -15 80
l0 79 88 3 87 3 3 105 3 105 101 40 c55 22 105 42 109 43 5 2 9 -24 9 -57 l0
-60 -77 -3 -78 -3 0 -130 0 -130 78 -3 77 -3 0 -34 c0 -24 -5 -35 -15 -35 -8
0 -15 -7 -15 -15 0 -10 10 -15 30 -15 29 0 30 1 30 50 0 38 4 50 15 50 11 0
15 -12 15 -50 l0 -51 152 3 c110 2 152 6 156 16 3 9 -29 12 -137 12 l-141 0
-2 297 c-2 226 -6 297 -15 301 -10 3 -13 -42 -13 -202z m-60 -146 l0 -60 -40
0 c-29 0 -40 -4 -40 -15 0 -11 11 -15 40 -15 38 0 40 -2 40 -30 l0 -30 -65 0
-65 0 0 105 0 105 65 0 65 0 0 -60z m60 -120 c0 -20 -5 -30 -15 -30 -10 0 -15
10 -15 30 0 20 5 30 15 30 10 0 15 -10 15 -30z"/>
<path d="M657 784 c-4 -4 -7 -61 -7 -126 l0 -118 125 0 126 0 -3 123 -3 122
-116 3 c-63 1 -118 -1 -122 -4z m211 -121 l-3 -98 -77 -3 c-43 -2 -78 1 -78 5
0 5 29 38 65 73 36 35 65 68 65 72 0 22 -31 2 -92 -59 l-68 -67 0 87 0 87 95
0 96 0 -3 -97z"/>
<path d="M657 514 c-4 -4 -7 -61 -7 -126 l0 -118 125 0 126 0 -3 123 -3 122
-116 3 c-63 1 -118 -1 -122 -4z m192 -31 c-1 -5 -39 -44 -85 -87 l-84 -80 0
87 0 87 85 0 c47 0 84 -3 84 -7z m21 -107 l0 -74 -76 -4 c-42 -2 -77 -2 -78 0
-4 3 138 149 147 150 4 1 7 -31 7 -72z"/>
<path d="M200 270 c-40 -40 -11 -110 45 -110 56 0 85 70 45 110 -11 11 -31 20
-45 20 -14 0 -34 -9 -45 -20z m70 -25 c26 -31 -18 -71 -47 -42 -19 19 -8 57
16 57 10 0 24 -7 31 -15z"/>
<path d="M371 264 c-12 -15 -21 -32 -21 -39 0 -23 41 -65 64 -65 38 0 66 28
66 65 0 62 -71 87 -109 39z m74 -39 c0 -25 -4 -30 -24 -30 -32 0 -49 28 -31
50 7 9 23 15 34 13 16 -2 21 -10 21 -33z"/>
</g>
</svg>
