<?xml version="1.0" standalone="no"?>
<!DOCTYPE svg PUBLIC "-//W3C//DTD SVG 20010904//EN"
 "http://www.w3.org/TR/2001/REC-SVG-20010904/DTD/svg10.dtd">
<svg version="1.0" xmlns="http://www.w3.org/2000/svg"
 width="100.000000pt" height="100.000000pt" viewBox="0 0 100.000000 100.000000"
 preserveAspectRatio="xMidYMid meet">

<g transform="translate(0.000000,100.000000) scale(0.100000,-0.100000)"
fill="#000000" stroke="none">
<path d="M703 921 c-59 -36 -56 -107 6 -148 20 -13 27 -23 18 -23 -18 0 -57
-46 -57 -69 -1 -21 -140 -117 -140 -97 0 8 7 19 16 24 13 7 15 17 10 46 l-7
36 -191 -2 -192 -3 -8 -30 c-6 -22 -4 -33 6 -41 11 -8 17 -57 26 -205 6 -107
13 -213 16 -236 l5 -43 120 0 c100 0 119 -2 119 -15 0 -19 43 -40 64 -32 9 4
21 18 28 32 10 22 8 29 -11 49 -22 23 -22 25 -12 182 6 87 11 165 11 173 0 12
3 12 12 3 19 -19 50 -14 90 13 20 14 39 25 42 25 4 0 6 -31 6 -68 0 -44 5 -75
15 -88 11 -14 14 -52 15 -161 0 -150 4 -163 51 -178 14 -5 28 0 44 15 23 21
24 32 30 174 3 83 7 217 8 298 1 142 0 148 -23 173 -13 14 -29 25 -37 25 -20
0 -15 17 7 23 27 7 53 69 41 99 -22 57 -79 79 -128 49z m92 -26 c28 -27 31
-45 14 -78 -16 -29 -28 -37 -63 -37 -40 0 -66 26 -66 67 0 67 68 96 115 48z
m10 -180 c22 -21 25 -33 25 -98 0 -41 3 -102 6 -136 5 -43 3 -61 -5 -61 -6 0
-11 7 -11 15 0 20 -37 38 -66 31 -14 -4 -30 -19 -37 -33 -12 -27 -12 -27 -19
17 -3 25 -7 63 -7 85 -1 37 3 42 50 73 42 27 50 37 47 59 -5 39 -32 52 -68 31
-24 -14 -30 -14 -30 -3 0 19 39 45 68 45 12 0 34 -11 47 -25z m-25 -43 c0 -15
-18 -31 -107 -92 -93 -64 -128 -73 -121 -30 5 30 188 150 211 138 9 -5 17 -12
17 -16z m-240 -22 c0 -19 -7 -20 -185 -20 -178 0 -185 1 -185 20 0 19 7 20
185 20 178 0 185 -1 185 -20z m-20 -60 c0 -19 -7 -20 -159 -20 -150 0 -159 1
-164 20 -5 19 0 20 159 20 157 0 164 -1 164 -20z m-5 -50 c0 -13 -25 -15 -157
-18 -154 -2 -158 -2 -158 18 0 20 4 20 158 18 132 -3 157 -5 157 -18z m-5
-100 l0 -70 -100 0 c-60 0 -100 -4 -100 -10 0 -6 39 -10 96 -10 l97 0 -6 -80
c-5 -71 -8 -82 -34 -105 -27 -24 -33 -25 -133 -22 -100 2 -105 3 -108 24 -3
22 0 23 80 25 l83 2 -82 3 -83 4 0 29 c0 27 3 30 33 31 l32 2 -35 6 -35 6 -7
110 c-4 60 -4 113 -2 117 3 4 72 8 155 8 l149 0 0 -70z m294 -6 c12 -31 7
-329 -6 -342 -22 -22 -28 -13 -28 43 0 30 -4 55 -10 55 -5 0 -10 -23 -10 -51
0 -31 -4 -48 -10 -44 -11 7 -14 337 -3 348 13 13 61 7 67 -9z m-276 -307 c-5
-37 -67 -33 -68 5 0 4 7 14 16 22 21 22 56 3 52 -27z"/>
<path d="M750 291 c0 -34 4 -61 10 -61 6 0 10 24 10 54 0 30 -4 58 -10 61 -6
4 -10 -17 -10 -54z"/>
</g>
</svg>
