<?xml version="1.0" standalone="no"?>
<!DOCTYPE svg PUBLIC "-//W3C//DTD SVG 20010904//EN"
 "http://www.w3.org/TR/2001/REC-SVG-20010904/DTD/svg10.dtd">
<svg version="1.0" xmlns="http://www.w3.org/2000/svg"
 width="100.000000pt" height="100.000000pt" viewBox="0 0 100.000000 100.000000"
 preserveAspectRatio="xMidYMid meet">

<g transform="translate(0.000000,100.000000) scale(0.100000,-0.100000)"
fill="#000000" stroke="none">
<path d="M75 660 c-13 -14 -16 -29 -12 -54 6 -37 51 -116 67 -116 14 0 70 101
70 125 0 11 -7 31 -16 43 -20 29 -83 31 -109 2z m86 0 c26 -14 25 -61 -3 -110
-13 -22 -26 -40 -29 -40 -8 0 -59 94 -59 109 0 16 38 51 56 51 8 0 24 -5 35
-10z"/>
<path d="M95 630 c-13 -41 43 -70 64 -33 13 25 -5 53 -34 53 -15 0 -26 -7 -30
-20z m53 -13 c2 -12 -3 -17 -17 -17 -12 0 -21 6 -21 13 0 31 32 34 38 4z"/>
<path d="M793 653 c-13 -2 -36 -18 -53 -34 -41 -42 -41 -100 0 -178 46 -86 75
-118 96 -106 29 18 104 166 104 207 0 70 -73 125 -147 111z m65 -24 c38 -13
62 -48 62 -91 0 -33 -75 -179 -95 -185 -12 -3 -70 91 -90 147 -19 55 -1 104
47 125 41 17 38 17 76 4z"/>
<path d="M792 593 c-24 -10 -34 -53 -18 -79 21 -31 52 -39 81 -20 61 40 6 127
-63 99z"/>
<path d="M385 490 c127 -3 231 -7 233 -8 2 -1 2 -12 0 -24 -2 -18 -11 -24 -35
-26 -39 -4 -45 -22 -7 -22 38 0 64 18 64 43 0 45 -10 47 -254 45 l-231 -2 230
-6z"/>
<path d="M245 410 c-15 -16 -17 -26 -9 -48 l9 -27 270 0 270 -1 -259 6 c-227
4 -260 7 -269 22 -8 12 -7 21 2 32 11 13 37 16 142 16 79 0 129 4 129 10 0 6
-51 10 -133 10 -122 0 -136 -2 -152 -20z"/>
</g>
</svg>
