<?xml version="1.0" standalone="no"?>
<!DOCTYPE svg PUBLIC "-//W3C//DTD SVG 20010904//EN"
 "http://www.w3.org/TR/2001/REC-SVG-20010904/DTD/svg10.dtd">
<svg version="1.0" xmlns="http://www.w3.org/2000/svg"
 width="100.000000pt" height="100.000000pt" viewBox="0 0 100.000000 100.000000"
 preserveAspectRatio="xMidYMid meet">

<g transform="translate(0.000000,100.000000) scale(0.100000,-0.100000)"
fill="#000000" stroke="none">
<path d="M430 915 l0 -85 -50 0 c-33 0 -50 -4 -50 -12 0 -15 164 -148 181
-148 19 0 191 142 182 151 -4 4 -28 9 -53 11 l-45 3 -2 70 c-1 39 -2 76 -2 83
-1 8 -24 12 -81 12 l-80 0 0 -85z m132 -32 c3 -77 3 -78 32 -83 l30 -5 -52
-43 c-59 -50 -67 -49 -132 8 l-45 39 33 1 32 0 0 80 0 80 50 0 49 0 3 -77z"/>
<path d="M330 585 c-96 -35 -181 -68 -189 -72 -7 -5 -28 -51 -47 -103 -36 -99
-34 -113 11 -124 22 -6 24 -11 27 -78 l3 -73 188 -68 187 -68 183 57 c100 31
186 61 191 65 5 4 8 46 7 92 -2 81 -1 84 23 95 14 6 26 19 26 28 0 26 -41 158
-54 171 -8 9 -368 145 -379 142 -1 0 -81 -29 -177 -64z m163 -79 c1 -53 0 -96
-3 -96 -12 -1 -280 85 -280 90 0 6 273 108 278 104 2 -1 4 -45 5 -98z m251 25
c44 -15 76 -30 70 -33 -10 -6 -269 -88 -278 -88 -3 0 -6 45 -6 100 l0 99 68
-26 c37 -14 103 -38 146 -52z m-409 -111 c83 -26 149 -51 149 -56 -8 -46 -47
-154 -56 -154 -9 0 -317 109 -326 115 -1 1 10 36 25 79 21 58 32 75 43 70 8
-3 83 -27 165 -54z m553 -12 l20 -66 -154 -66 c-84 -36 -157 -66 -162 -66 -8
0 -57 140 -54 156 1 6 324 115 328 110 1 0 11 -31 22 -68z m-28 -196 l0 -69
-152 -47 c-83 -26 -157 -50 -165 -53 -10 -4 -13 18 -12 108 l1 114 16 -47 c10
-31 21 -48 31 -48 9 1 72 25 141 55 69 30 128 54 133 55 4 0 7 -31 7 -68z
m-496 -18 c38 -13 75 -24 83 -24 7 0 18 20 25 45 7 25 15 45 18 45 5 0 3 -174
-3 -206 -2 -11 -69 11 -284 92 l-43 16 0 53 0 54 68 -26 c37 -14 98 -36 136
-49z"/>
</g>
</svg>
