<?xml version="1.0" encoding="utf-8"?>
<!-- Generator: Adobe Illustrator 26.0.1, SVG Export Plug-In . SVG Version: 6.00 Build 0)  -->
<svg version="1.1" id="Layer_1" xmlns="http://www.w3.org/2000/svg" xmlns:xlink="http://www.w3.org/1999/xlink" x="0px" y="0px"
	 viewBox="0 0 100 100" style="enable-background:new 0 0 100 100;" xml:space="preserve">
<style type="text/css">
	.st0{fill:none;stroke:#000000;stroke-miterlimit:10;}
</style>
<g>
	<path class="st0" d="M91.25,21.87c0.02-1.3-0.48-2.33-1.61-3.02c-0.13-0.08-0.28-0.16-0.44-0.18c-0.1-0.01-0.27,0.05-0.3,0.13
		c-0.05,0.11-0.04,0.29,0.03,0.38c0.09,0.12,0.25,0.2,0.38,0.28c0.85,0.54,1.25,1.32,1.26,2.32c0.01,0.82-0.23,1.58-0.54,2.32
		c-0.48,1.11-1.14,2.11-1.88,3.05c-1.22,1.54-2.63,2.9-4.14,4.16c-0.14,0.11-0.3,0.22-0.39,0.37c-0.06,0.11-0.08,0.34-0.01,0.41
		c0.07,0.08,0.28,0.09,0.42,0.05c0.13-0.03,0.24-0.15,0.34-0.24c0.96-0.88,1.95-1.72,2.86-2.65c1.36-1.39,2.55-2.92,3.37-4.71
		C90.97,23.68,91.24,22.8,91.25,21.87z"/>
	<path class="st0" d="M68.08,49.5c-0.03-0.09-0.16-0.2-0.25-0.2c-0.09,0-0.23,0.09-0.27,0.18c-0.06,0.14-0.07,0.31-0.08,0.47
		c-0.07,2.62-0.14,5.23-0.21,7.85c0,0.14,0,0.28,0.02,0.42c0.03,0.19,0.11,0.39,0.33,0.34c0.12-0.03,0.25-0.19,0.29-0.31
		c0.06-0.21,0.06-0.43,0.06-0.65c0-1.24,0.13-6.31,0.13-7.61C68.11,49.81,68.13,49.64,68.08,49.5z"/>
	<path class="st0" d="M90.29,30.58c1.45-1.36,2.57-2.95,3.36-4.78c0.48-1.11,0.77-2.27,0.78-2.97c0-2.4-0.68-4.16-2-5.52
		c-0.54-0.56-1.14-1.08-1.78-1.51c-2.31-1.55-4.81-2.7-7.51-3.42c-2.06-0.55-4.19-0.67-6.3-0.81c-2.08-0.14-4.16-0.19-6.23-0.37
		c-2.75-0.24-5.27-1.11-7.42-2.93c-1.3-1.1-2.65-2.14-3.99-3.18c-1.43-1.12-3.01-1.98-4.73-2.57c-1.5-0.51-3.2-0.04-4.24,1.16
		c-4.43,5.12-8.85,10.24-13.27,15.36c-3.53,4.09-7.07,8.18-10.6,12.27c-0.14,0.16-0.29,0.33-0.42,0.49c-0.16-0.1-0.33-0.2-0.49-0.31
		c-0.56-0.35-0.81-0.29-1.02,0.28c-0.33,0.93-0.58,1.73-0.91,2.66c-0.05-0.04-0.44-0.01-0.54,0c-1.96,0.04-3.92,0.07-5.88,0.12
		c-0.62,0.01-1.24,0.04-1.86,0.07c-0.09,0-0.18,0.01-0.27,0.02c-0.29-0.05-0.48,0.15-0.57,0.61c-0.06,0.29-0.09,0.59-0.11,0.89
		c-0.17,2.19-0.32,4.39-0.51,6.58c-0.06,0.69-0.2,1.38-0.34,2.07c-0.11,0.52-0.45,0.83-0.99,0.9c-0.48,0.06-0.95,0.14-1.42,0.23
		c-1.24,0.25-2.46,0.57-3.52,1.31c-1.37,0.97-2.02,2.28-1.92,3.96c0.04,0.64,0.03,1.28,0.06,1.92c0.01,0.38,0.05,0.76,0.07,1.14
		c0.02,0.36,0.17,0.64,0.42,0.9c1.42,1.49,2.84,2.98,4.27,4.46c-0.04,0.17-0.04,0.36-0.04,0.55c0,6.22,0,12.45,0,18.67
		c0,0.4-0.04,0.8,0.31,1.11c0.07,0.07,0.08,0.22,0.09,0.34c0.03,0.2,0.03,0.4,0.05,0.6c0.07,0.53,0.21,0.66,0.73,0.66
		c0.56,0,1.12-0.05,1.68-0.04c0.86,0.02,1.16-0.1,1.08-1.11c-0.01-0.15,0.01-0.4,0.09-0.44c0.5-0.22,0.39-0.65,0.39-1.04
		c0.02-4.84,0.04-9.69,0.06-14.53c0-0.04,0-0.08,0-0.11c1.59,1.66,3.17,3.32,4.76,4.99c0.1,0.1,0.19,0.23,0.31,0.27
		c0.06,0.02,0.12,0.03,0.19,0.03c0.1,0.06,0.23,0.12,0.3,0.21c0.05,4.33,0.16,8.68,0.14,13.11c-0.23-0.12-0.37-0.19-0.51-0.26
		c-0.76-0.35-1.42-0.04-1.59,0.78c-0.05,0.25-0.02,0.51,0,0.77c0.01,0.19,0.06,0.38,0.09,0.59c-0.57-0.08-1.08-0.19-1.59-0.22
		c-0.37-0.03-0.76,0.01-1.13,0.07c-0.49,0.09-0.78,0.39-0.78,0.71c0,0.3,0.26,0.59,0.71,0.72c0.31,0.09,0.63,0.13,0.94,0.15
		c0.83,0.05,1.63-0.07,2.43-0.33c0.21,0.29,0.46,0.54,0.54,0.95c-0.29-0.04-0.53-0.1-0.76-0.1c-0.56,0-1.12,0.01-1.67,0.05
		c-0.19,0.01-0.39,0.1-0.57,0.19c-0.24,0.12-0.44,0.3-0.42,0.6c0.02,0.27,0.2,0.44,0.44,0.53c0.22,0.08,0.46,0.15,0.69,0.17
		c1.03,0.09,2.03,0.02,2.98-0.51c0.21,0.31,0.41,0.58,0.58,0.87c0.14,0.23,0.32,0.35,0.59,0.33c0.74-0.05,1.48-0.08,2.22-0.14
		c0.28-0.02,0.51-0.15,0.55-0.46c0.09-0.75,0.17-1.51,0.24-2.27c0.03-0.3-0.06-0.58-0.36-0.7c-0.29-0.12-0.32-0.33-0.32-0.58
		c0.01-0.44,0.03-0.88,0.03-1.32c0-4.34,0-8.69,0-13.03c0-0.25,0.03-0.5,0.05-0.76c0.29,0,0.52,0,0.82,0c0,0.3,0,0.56,0,0.81
		c0.01,5.83,0.02,11.65,0.03,17.48c0.01,2.42,0.03,4.85,0.05,7.27c0,0.27-0.08,0.59,0.19,0.78c0.23,0.17,0.25,0.39,0.28,0.63
		c0.03,0.22,0.04,0.44,0.09,0.65c0.06,0.26,0.21,0.41,0.51,0.4c0.82-0.03,1.64-0.04,2.46-0.07c0.42-0.02,0.51-0.13,0.52-0.56
		c0.01-0.28,0-0.55,0-0.81c0.56-0.21,0.56-0.21,0.57-0.79c0-0.1,0-0.2,0-0.3c0.04-8.25,0.08-16.5,0.12-24.75c0-0.23,0-0.47,0-0.79
		c0.35,0,0.63,0,0.9,0c8.99,0,17.98,0.01,26.97,0.01c0.22,0,0.44,0,0.66,0c0.3,0,0.45-0.12,0.56-0.42c0.4-1.09,0.81-2.17,1.26-3.24
		c0.74-1.76,2.14-2.7,3.99-2.99c0.67-0.1,1.36-0.1,2.03-0.13c0.9-0.04,1.8-0.05,2.7-0.1c0.69-0.04,1.34-0.22,1.94-0.56
		c0.02-0.01,0.69-0.34,0.87-0.95c0.09-0.32,0.16-0.67,0.16-1c-0.01-0.84,0.38-1.39,1.12-1.76c1-0.5,2.05-0.82,3.16-0.89
		c1.5-0.09,3-0.1,4.5-0.14c0.09,0,0.19,0.03,0.31,0.05c0.01,0.22,0.03,0.42,0.03,0.61c0.04,6.89,0.08,13.77,0.12,20.66
		c0,0.26,0.02,0.52,0.01,0.78c0,0.21,0.08,0.34,0.28,0.41c0.11,0.04,0.21,0.09,0.3,0.13c0.02,0.11,0.05,0.19,0.06,0.27
		c0.03,0.3,0.05,0.6,0.08,0.9c0.06,0.7,0.18,0.83,0.9,0.82c0.86-0.01,1.72-0.04,2.58-0.07c0.57-0.02,0.7-0.15,0.74-0.71
		c0.01-0.14-0.01-0.28-0.01-0.42c-0.01-0.44-0.22-0.92,0.29-1.24c0.06-0.04,0.06-0.18,0.06-0.28c0.01-0.2,0.01-0.4,0-0.6
		c-0.04-7.11-0.08-14.22-0.12-21.32c0-0.25,0-0.51,0-0.73c0.62-0.24,1.17-0.43,1.7-0.66c2.66-1.21,4.32-3.24,4.98-6.08
		c0.05-0.23,0.06-0.48,0.05-0.72c0.04-0.04,0.08-0.09,0.1-0.14c0.05-0.16,0.04-0.36,0.04-0.53c0-1.56-0.01-3.12-0.02-4.68
		c-0.01-1.88-0.02-3.76-0.01-5.65c0-0.68-0.21-1.22-0.73-1.7c-0.74-0.68-1.6-1.13-2.54-1.44c-1.56-0.52-3.17-0.76-4.79-0.83
		c0.41-0.16,0.81-0.33,1.19-0.54C87.57,32.89,88.98,31.8,90.29,30.58z M15.84,85.31c0.8-0.24,1.45-0.12,2.16,0.02
		C17.38,85.61,16.63,85.61,15.84,85.31z M17.32,87.53c0.39-0.28,0.95-0.32,1.87-0.1C18.52,87.64,17.93,87.66,17.32,87.53z
		 M26.65,31.99c6.07-7.02,12.14-14.05,18.21-21.07c0.01,0.07,0.03,0.13,0.05,0.2c2.04,7.88,4.07,15.76,6.11,23.63
		c-1.6,0.02-3.2,0.05-4.8,0.07c-4.86,0.07-9.73,0.13-14.59,0.2c-0.15,0-0.31,0.01-0.45,0.06c-1.55-0.98-3.11-1.96-4.66-2.93
		C26.55,32.1,26.6,32.04,26.65,31.99z M51.18,35.4c0.2,0.77,0.4,1.54,0.6,2.3c-1.69,0.06-3.37,0.14-5.06,0.26
		c-3.25,0.22-6.5,0.51-9.75,0.76c-0.04,0-0.08,0.01-0.12,0.01c-0.05-0.12-0.15-0.19-0.27-0.26c-0.61-0.38-1.22-0.76-1.83-1.14
		c-0.86-0.54-1.72-1.08-2.59-1.63c3.56-0.06,7.12-0.12,10.69-0.18C45.62,35.48,48.4,35.44,51.18,35.4z M24.91,32.25
		c0.02-0.05,0.07-0.1,0.15-0.21c3.7,2.33,7.37,4.64,11.1,6.99c-0.85,2.28-1.69,4.54-2.56,6.85c-0.18-0.1-0.33-0.16-0.45-0.25
		c-3.29-2.28-6.58-4.56-9.86-6.84c-0.5-0.35-0.52-0.36-0.33-0.92C23.6,35.99,24.26,34.12,24.91,32.25z M21.64,35.11
		c0.54-0.01,1.08-0.06,1.62-0.1c0.01,0,0.01,0,0.02,0c-0.39,1.1-0.78,2.21-1.17,3.31c-0.09,0.25-0.03,0.43,0.18,0.57
		c0.13,0.09,0.26,0.19,0.39,0.28c2.48,1.72,4.97,3.44,7.45,5.16c1.05,0.73,2.1,1.46,3.16,2.19c0.5,0.34,0.67,0.28,0.9-0.27
		c0.02-0.06,0.04-0.11,0.06-0.17c0.83-2.21,1.65-4.42,2.48-6.63c0-0.01,0-0.01,0.01-0.02c0.07-0.01,0.13-0.02,0.2-0.02
		c3.21-0.26,6.42-0.58,9.63-0.77c1.79-0.1,3.59-0.19,5.39-0.25c0.73,2.84,1.47,5.68,2.2,8.52c0.02,0.1,0.04,0.2,0.07,0.29
		c-4.5-0.04-9-0.07-13.5-0.11c-2.56-0.02-5.12-0.05-7.69-0.08c-0.16,0-0.33,0-0.49,0.03c-0.05-0.07-0.11-0.14-0.19-0.2
		c-0.15-0.11-0.29-0.21-0.44-0.32c-2.83-2-5.65-4-8.48-6.01c-2.48-1.76-4.96-3.52-7.45-5.27C17.68,35.23,20.91,35.12,21.64,35.11z
		 M14.87,36.68c0.06-0.39,0.06-0.78,0.1-1.29c0.28,0.18,0.44,0.27,0.6,0.38c5.32,3.77,10.64,7.54,15.97,11.3
		c0.38,0.27,0.51,0.53,0.43,0.99c-0.1,0.6-0.11,1.22-0.17,1.91c-0.2-0.12-0.34-0.18-0.45-0.27c-5.37-4.07-10.74-8.15-16.11-12.22
		C14.95,37.27,14.81,37.05,14.87,36.68z M22.63,53.34c-1.49-1.3-2.98-2.61-4.49-3.89c-0.32-0.27-0.44-0.54-0.39-0.98
		c0.24-2.27,0.45-4.54,0.67-6.81c0.02-0.24,0.07-0.47,0.12-0.82c0.28,0.2,0.46,0.33,0.63,0.46c4.02,3.05,8.03,6.1,12.05,9.13
		c0.39,0.3,0.55,0.6,0.52,1.1c-0.11,1.78-0.18,3.55-0.26,5.33c-0.01,0.2-0.04,0.4-0.08,0.59c-0.18,0.89-1.07,1.64-1.97,1.63
		c-0.15,0-0.32-0.13-0.45-0.24C26.85,57.02,24.74,55.18,22.63,53.34z M28.16,59.12c-0.62-0.05-1.13-0.08-1.64-0.15
		c-1.07-0.14-2.12-0.05-3.16,0.19c-0.31,0.07-0.52,0.03-0.75-0.2c-2.94-2.87-5.88-5.72-8.82-8.58c-0.1-0.09-0.18-0.21-0.3-0.35
		c0.17-0.06,0.29-0.12,0.42-0.14c0.89-0.16,1.77-0.31,2.66-0.46c0.29-0.05,0.53,0,0.77,0.21c3.51,3.07,7.03,6.13,10.55,9.19
		C27.97,58.88,28.02,58.96,28.16,59.12z M6.24,50.59c0.05-0.83,0.36-1.55,0.92-2.17c0.54-0.59,1.2-0.99,1.94-1.28
		c0.96-0.37,1.96-0.57,2.97-0.72c1.49-0.22,1.89-0.56,2.16-2.05c0.16-0.9,0.22-1.83,0.3-2.74c0.09-1.06,0.15-2.12,0.23-3.17
		c0.01-0.11,0.03-0.22,0.06-0.39c0.15,0.09,0.25,0.13,0.34,0.2c0.8,0.6,1.59,1.22,2.4,1.81c0.24,0.17,0.32,0.36,0.29,0.66
		c-0.25,2.41-0.48,4.82-0.71,7.23c-0.07,0.74-0.08,0.75-0.8,0.87c-1.05,0.18-2.09,0.36-3.14,0.53c-0.38,0.06-0.7,0.19-0.78,0.67
		c-0.93,0.03-1.82,0.07-2.72,0.07c-1.08,0-1.02,0.06-1.12,0.96c-0.16,1.43-0.33,0.99,0.65,1.98c3.18,3.21,6.38,6.42,9.57,9.62
		c0.23,0.23,0.48,0.45,0.22,0.86c-0.12-0.1-0.25-0.18-0.35-0.29c-4.04-3.97-8.08-7.94-12.13-11.91C6.32,51.11,6.22,50.89,6.24,50.59
		z M9.79,51.67c2.67,2.71,5.34,5.42,8.01,8.13c0.51,0.51,1.01,1.02,1.52,1.54c0.33,0.34,0.33,0.35,0.04,0.87
		c-0.14-0.13-0.25-0.21-0.35-0.31c-3.16-3.18-6.32-6.36-9.49-9.53c-0.33-0.33-0.48-0.66-0.27-1.14C9.5,51.29,9.63,51.51,9.79,51.67z
		 M13.64,80.84c-0.71,0-1.42,0-2.18,0c-0.04-0.27-0.07-0.54-0.12-0.89c0.77-0.09,1.49-0.12,2.3-0.08
		C13.64,80.23,13.64,80.5,13.64,80.84z M14.17,64.49c-0.02,4.64-0.03,9.29-0.05,13.93c0,0.25-0.03,0.5-0.06,0.78
		c-1.02,0-1.97,0-3.03,0c0-0.36,0-0.63,0-0.91c0-6,0-12-0.01-18c1.08,1.14,2.11,2.21,3.2,3.35C14.2,63.68,14.17,64.27,14.17,64.49z
		 M7.24,55.35c-0.9-0.94-0.91-0.94-0.94-2.26c-0.01-0.29,0.02-0.58,0.04-1.01c0.29,0.28,0.48,0.45,0.66,0.63
		c3.9,3.83,7.79,7.66,11.69,11.49c0.1,0.1,0.19,0.2,0.3,0.29c0.06,0.05,0.12,0.08,0.17,0.1c0.03,1.28,0.24,2.53,0.51,3.78
		C15.54,64.03,11.39,59.69,7.24,55.35z M9.93,50.85c0.18-0.05,0.25-0.09,0.32-0.09c0.78-0.05,1.56-0.09,2.34-0.14
		c0.3-0.02,0.54,0.05,0.76,0.26c2.9,2.82,5.8,5.64,8.7,8.46c0.03,0.03,0.04,0.07,0.06,0.1c-0.72,0.53-1.41,1.03-2.17,1.58
		C16.65,57.68,13.32,54.3,9.93,50.85z M21.16,87.52c-0.01,0.01-0.02,0.02-0.03,0.02c-0.06,0.02-0.11-0.04-0.14-0.09
		c-0.53-0.76-1.06-1.53-1.48-2.36c-0.2-0.39-0.38-0.81-0.42-1.25c-0.02-0.22,0.01-0.58,0.25-0.68c0.28-0.11,0.62,0.18,0.8,0.36
		c0.53,0.55,0.93,1.21,1.32,1.86c0.11,0.17,0.21,0.36,0.23,0.56c0.01,0.19-0.06,0.38-0.12,0.56c-0.12,0.31-0.24,0.63-0.36,0.94
		C21.19,87.47,21.18,87.5,21.16,87.52z M21.09,69.71c0.16-0.13,0.73-0.08,0.92-0.09c0.38-0.01,0.76,0,1.15,0.02
		c0.01,5.24,0.02,10.48,0.03,15.72c-0.25,0.13-0.56,0.27-0.81,0.14c-0.14-0.07-0.23-0.2-0.31-0.33c-0.2-0.3-0.41-0.6-0.55-0.93
		c-0.27-0.64-0.28-1.36-0.29-2.06c-0.05-3.4-0.09-6.8-0.14-10.21c-0.01-0.37-0.01-0.75-0.02-1.12c0-0.19-0.01-0.37-0.01-0.56
		c0-0.12-0.07-0.46-0.01-0.56C21.08,69.73,21.08,69.72,21.09,69.71z M23.58,88.16c-0.58,0.05-1.19,0.09-1.96,0.15
		c0.23-0.7,0.41-1.28,0.63-1.85c0.05-0.12,0.22-0.23,0.36-0.26c0.38-0.09,0.78-0.15,1.16-0.22C23.9,86.42,23.82,87.3,23.58,88.16z
		 M28.19,96.96c-0.72,0.06-1.44,0.12-2.22,0.08c-0.04-0.28-0.07-0.53-0.11-0.77c0.47-0.18,1.63-0.21,2.3-0.07
		c0.02,0.1,0.05,0.21,0.05,0.33C28.22,96.64,28.2,96.76,28.19,96.96z M28.83,81.66c-0.02,4.32-0.03,8.64-0.05,12.97
		c0,0.26,0,0.51,0,0.82c-1.12,0.09-2.17,0.05-3.3-0.01c0-8.6,0-17.15,0-25.77c1.12,0,2.22,0,3.38,0c0.02,0.28,0.05,0.53,0.05,0.78
		C28.88,74.18,28.85,77.92,28.83,81.66z M57.95,68.98c-0.21,0-0.49,0-0.77,0c-9.01,0-18.02,0-27.03-0.01c-3.16,0-6.33-0.01-9.49,0
		c-0.05,0-0.11,0-0.16-0.01c-0.02-0.13-0.06-0.27-0.09-0.4c-0.13-0.64-0.26-1.29-0.41-2.06c0.35,0,0.57,0,0.78,0
		c1.82,0,3.64-0.01,5.47-0.01c10.65-0.01,21.3-0.02,31.95-0.03c0.22,0,0.44,0.01,0.66-0.01c0.04,0,0.08-0.01,0.12-0.01
		C58.64,67.25,58.31,68.09,57.95,68.98z M70.77,45.38c-0.09,2.84-0.18,5.68-0.28,8.52c-0.08,2.54-0.17,5.08-0.25,7.62
		c0,0.04,0,0.07,0,0.11c-0.11,0.06-0.24,0.11-0.38,0.15c-0.63,0.17-1.29,0.3-1.94,0.35c-1.18,0.08-2.36,0.03-3.54,0.12
		c-2.41,0.19-4.2,1.32-5.16,3.61c0,0,0,0.01,0,0.01c-0.09-0.07-0.21-0.09-0.34-0.1c-0.26-0.01-0.52-0.01-0.78-0.01
		c-12.41,0.03-24.83,0.05-37.24,0.08c-0.29,0-0.59,0-0.92,0c-0.05-0.31-0.09-0.54-0.11-0.77c-0.09-1.01,0.03-1.99,0.36-2.95
		c0.34-0.67,0.88-1.22,1.61-1.62c0.47-0.26,0.98-0.46,1.49-0.61c1.23-0.37,2.49-0.3,3.75-0.19c0.81,0.07,1.65,0.16,2.45,0.06
		c1.53-0.2,2.54-1.04,2.62-2.63c0.05-0.98,0.14-1.96,0.19-2.93c0.12-2.16,0.22-4.32,0.34-6.49c0.12,0.02,0.25,0.02,0.37,0.02
		c5.38,0.04,10.77,0.09,16.15,0.13c5.32,0.05,10.65,0.09,15.97,0.14c0.2,0,0.4,0,0.6-0.03c1.77-0.3,3.31-1.07,4.52-2.41
		c0.18-0.2,0.34-0.42,0.49-0.65C70.8,45.04,70.78,45.21,70.77,45.38z M70.55,43.91c-1.19,2.17-3.09,3.24-5.51,3.39
		c-1.28,0.08-2.56-0.03-3.84-0.04c-2.09-0.02-4.19-0.03-6.28-0.05c-0.07-0.28-0.11-0.48-0.17-0.69c-0.7-2.72-1.41-5.44-2.11-8.16
		c1.33-0.04,2.67-0.08,4-0.1c6.81-0.11,13.61,0,20.38,0.82c1.89,0.23,3.77,0.51,5.59,1.08c0.55,0.17,1.08,0.41,1.61,0.66
		c0.29,0.14,0.53,0.35,0.61,0.68c-1.04,0.06-2.07,0.08-3.11,0.09c-2.45,0.01-4.88,0.2-7.3,0.51c-0.69,0.09-1.38,0.26-2.05,0.45
		c-0.5,0.14-0.9,0.42-1.25,0.76c-0.08,0.08-0.18,0.15-0.28,0.22C70.75,43.58,70.66,43.71,70.55,43.91z M84.46,81.43
		c-0.5,0.01-1,0.01-1.5,0.01c-0.59,0-0.77,0.14-0.79-0.69c-0.01-0.23-0.04-0.46-0.06-0.76c1.03,0,1.98,0,2.99,0
		c0.03,0.45,0.05,0.9,0.08,1.4C84.89,81.41,84.67,81.43,84.46,81.43z M85.4,79.16c-1.25,0.18-2.52,0.11-3.87,0.16
		c-0.09-7.32-0.04-14.58-0.14-21.87c1.33-0.18,2.59-0.36,3.86-0.53c0.01,0.01,0.03,0.01,0.05,0.03c0.01,0.01,0.02,0.03,0.03,0.05
		c0.02,0.1,0.04,0.2,0.04,0.29c0.03,7.19,0.06,14.38,0.09,21.56C85.45,78.94,85.43,79.01,85.4,79.16z M92.18,40.83
		c0.02,2.56,0.03,5.12,0.05,7.69c0,0.2-0.01,0.41,0.04,0.59c-0.01,0.01-0.02,0.02-0.02,0.03c-0.06,0.07-0.06,0.19-0.08,0.29
		c-0.67,3.29-2.66,5.39-5.81,6.43c-1.72,0.57-3.51,0.82-5.31,0.88c-1.5,0.05-3,0.07-4.5,0.13c-1.31,0.05-2.58,0.32-3.79,0.85
		c-0.99,0.44-1.69,1.06-1.8,2.11c0.02-0.6,0.04-1.19,0.06-1.79c0.16-4.54,0.32-9.08,0.46-13.62c0.01-0.41,0.15-0.71,0.48-0.9
		c0.31-0.18,0.64-0.35,0.98-0.43c0.68-0.16,1.37-0.29,2.07-0.37c2.71-0.33,5.43-0.4,8.15-0.48c1.6-0.05,3.2-0.2,4.79-0.37
		c1.51-0.16,2.95-0.56,4.07-1.69c0.01-0.01,0.04,0,0.17,0C92.18,40.39,92.18,40.61,92.18,40.83z M85.41,35.01
		c1.54,0.08,3.06,0.36,4.51,0.93c0.6,0.24,1.15,0.55,1.63,0.99c0.62,0.56,0.87,1.77,0.18,2.55c-0.44,0.49-0.91,0.92-1.52,1.13
		c-0.58,0.2-1.18,0.38-1.79,0.49c-0.97,0.17-1.94,0.29-2.92,0.36c0.01-0.34-0.15-0.6-0.38-0.8c-0.32-0.27-0.67-0.53-1.05-0.67
		c-0.82-0.31-1.66-0.6-2.51-0.8c-2.79-0.67-5.64-0.95-8.49-1.18c-4.45-0.36-8.92-0.46-13.38-0.44c-2.41,0.01-4.81,0.04-7.22,0.11
		c-0.2-0.76-0.4-1.53-0.59-2.29c5.52-0.08,11.04-0.16,16.55-0.25c4.3-0.06,8.61-0.13,12.91-0.18
		C82.69,34.94,84.05,34.94,85.41,35.01z M83.38,34.16c-0.04,0.01-0.08,0.03-0.11,0.04c-0.04,0.02-0.07,0.04-0.1,0.06
		c-4.23,0.05-8.47,0.13-12.7,0.2c-6.26,0.1-12.51,0.19-18.77,0.28c-0.66-2.54-1.31-5.08-1.97-7.62c-1.39-5.38-2.79-10.77-4.18-16.15
		c-0.05-0.19-0.11-0.39-0.21-0.56c-0.01-0.01-0.01-0.02-0.02-0.03c1.78-2.05,3.55-4.11,5.33-6.16c1.03-1.19,2.36-1.54,3.83-1
		c1.63,0.6,3.12,1.44,4.48,2.52c1.3,1.03,2.62,2.05,3.89,3.11c2.12,1.77,4.59,2.68,7.29,2.96c1.87,0.19,3.76,0.22,5.63,0.37
		c1.88,0.14,3.76,0.24,5.62,0.53c3.4,0.54,6.45,1.98,9.27,3.92c0.44,0.3,0.84,0.68,1.22,1.06c1.07,1.1,1.68,2.42,1.84,3.95
		c0.14,1.36-0.15,2.63-0.68,3.86c-0.78,1.83-1.9,3.44-3.4,4.75C87.78,31.89,85.83,33.44,83.38,34.16z"/>
</g>
</svg>
