<?xml version="1.0" standalone="no"?>
<!DOCTYPE svg PUBLIC "-//W3C//DTD SVG 20010904//EN"
 "http://www.w3.org/TR/2001/REC-SVG-20010904/DTD/svg10.dtd">
<svg version="1.0" xmlns="http://www.w3.org/2000/svg"
 width="90.000000pt" height="98.000000pt" viewBox="0 0 90.000000 98.000000"
 preserveAspectRatio="xMidYMid meet">

<g transform="translate(0.000000,98.000000) scale(0.100000,-0.100000)"
fill="#000000" stroke="none">
<path d="M359 853 c-168 -193 -178 -202 -225 -203 -38 0 -42 -2 -48 -31 -3
-17 -6 -42 -6 -54 0 -16 -8 -25 -24 -29 -58 -15 -75 -75 -31 -116 23 -21 25
-31 27 -134 3 -103 4 -111 23 -111 18 0 21 8 25 78 l5 79 23 -25 c20 -21 23
-33 20 -83 -3 -50 -6 -60 -26 -69 -12 -6 -20 -16 -17 -23 3 -8 5 -18 5 -23 0
-5 18 -9 40 -9 38 0 40 -2 40 -29 0 -42 9 -61 30 -61 26 0 30 19 30 156 l0
124 145 0 145 0 10 25 c10 26 45 45 85 45 13 0 29 10 39 25 11 17 26 25 46 25
l30 0 0 -106 c0 -107 9 -144 35 -144 26 0 35 38 35 149 0 102 2 111 21 121 32
18 47 67 42 136 -5 54 -8 63 -31 73 l-25 12 25 27 c55 58 61 96 23 140 -30 36
-100 62 -164 62 -65 0 -101 12 -155 54 -73 56 -80 53 -197 -81z m196 61 c52
-40 94 -53 171 -54 63 0 135 -35 148 -72 13 -37 -8 -81 -53 -112 -36 -25 -42
-26 -194 -26 l-156 0 -10 38 c-5 20 -19 73 -30 116 l-20 79 26 34 c33 43 58
42 118 -3z m-131 -152 c14 -54 26 -102 26 -105 0 -10 -193 -8 -209 2 -12 8
-12 12 0 28 24 35 144 172 150 172 3 1 18 -43 33 -97z m-135 -158 c9 -8 11
-20 5 -38 l-9 -26 -47 31 c-47 31 -54 42 -42 73 6 14 11 14 43 -5 20 -12 42
-28 50 -35z m-119 16 c0 -5 -4 -10 -9 -10 -6 0 -13 5 -16 10 -3 6 1 10 9 10 9
0 16 -4 16 -10z m255 -1 c-56 -11 -113 -11 -120 1 -4 6 24 10 77 9 71 -1 77
-2 43 -10z m433 -10 c4 -24 -33 -30 -76 -12 -23 9 -89 18 -172 23 l-135 7 190
-1 c166 -1 190 -3 193 -17z m-738 -59 c0 -35 -3 -40 -27 -46 -16 -3 -39 -10
-51 -15 -18 -7 -23 -6 -20 3 3 7 18 17 34 23 36 12 44 22 44 58 0 16 4 26 10
22 6 -3 10 -24 10 -45z m136 -38 c-5 -4 -116 77 -116 85 0 2 27 -15 60 -38 33
-24 58 -45 56 -47z m214 79 c0 -5 3 -23 7 -41 l6 -33 -89 8 c-49 4 -90 8 -92
10 -1 1 3 14 9 28 12 27 29 32 117 35 23 1 42 -2 42 -7z m260 0 l45 -7 -55 -7
c-39 -5 -60 -13 -77 -32 -20 -21 -33 -25 -83 -25 -33 0 -60 4 -60 9 0 5 -3 23
-6 40 l-6 31 98 -1 c55 0 119 -4 144 -8z m-470 -147 c0 -46 -14 -43 -77 14
-46 42 -51 50 -46 79 l5 32 59 -45 c52 -40 59 -49 59 -80z m610 85 c0 -60 -41
-99 -107 -99 -26 0 -58 -3 -70 -6 -22 -6 -23 -4 -23 60 0 74 -2 73 100 79 30
2 65 4 78 5 19 2 22 -3 22 -39z m-232 -150 c-7 -5 -27 -9 -44 -9 -17 0 -37 -7
-44 -15 -10 -12 -46 -15 -207 -15 l-195 0 14 23 c11 16 27 23 59 25 52 4 59
12 59 76 l0 49 163 -6 c89 -3 171 -2 182 2 19 8 20 4 23 -57 2 -45 -1 -68 -10
-73z m-474 72 c30 -26 41 -41 32 -44 -7 -3 -33 15 -57 39 -53 54 -36 58 25 5z
m-9 -60 c-7 -6 -85 70 -85 83 0 6 20 -10 45 -34 24 -24 42 -46 40 -49z m-70
-1 c33 -33 57 -60 54 -60 -2 0 -31 27 -64 60 -33 33 -57 60 -54 60 2 0 31 -27
64 -60z m715 -85 c0 -87 -3 -105 -15 -105 -12 0 -15 18 -15 105 0 87 3 105 15
105 12 0 15 -18 15 -105z m-710 -18 c0 -34 -5 -69 -10 -77 -7 -10 -10 11 -10
68 0 53 4 81 10 77 6 -3 10 -34 10 -68z m353 26 c-51 -2 -136 -2 -190 0 -54 1
-12 3 92 3 105 0 149 -2 98 -3z m-266 -130 c-2 -21 -4 -4 -4 37 0 41 2 58 4
38 2 -21 2 -55 0 -75z m53 -18 c0 -77 -4 -125 -10 -125 -6 0 -10 48 -10 125 0
77 4 125 10 125 6 0 10 -48 10 -125z"/>
<path d="M845 783 c5 -27 1 -37 -31 -73 -46 -51 -37 -66 11 -16 44 47 54 82
30 104 -16 16 -17 15 -10 -15z"/>
<path d="M620 449 c0 -31 4 -48 10 -44 6 3 10 26 10 51 0 24 -4 44 -10 44 -5
0 -10 -23 -10 -51z"/>
</g>
</svg>
