<?xml version="1.0" standalone="no"?>
<!DOCTYPE svg PUBLIC "-//W3C//DTD SVG 20010904//EN"
 "http://www.w3.org/TR/2001/REC-SVG-20010904/DTD/svg10.dtd">
<svg version="1.0" xmlns="http://www.w3.org/2000/svg"
 width="100.000000pt" height="100.000000pt" viewBox="0 0 100.000000 100.000000"
 preserveAspectRatio="xMidYMid meet">

<g transform="translate(0.000000,100.000000) scale(0.100000,-0.100000)"
fill="#000000" stroke="none">
<path d="M568 907 c-32 -18 -58 -35 -58 -38 0 -7 101 -64 115 -64 6 0 10 7 10
15 0 12 18 16 91 18 79 2 94 0 117 -18 24 -19 27 -28 27 -81 0 -59 0 -59 30
-59 30 0 30 0 30 58 0 39 -6 67 -20 89 -33 56 -62 67 -176 71 -78 3 -101 7
-98 17 10 25 -12 23 -68 -8z"/>
<path d="M224 685 c-16 -24 -21 -25 -115 -25 -99 0 -121 -8 -99 -35 9 -11 43
-15 133 -17 101 -3 122 -6 122 -18 0 -12 -20 -16 -97 -20 -101 -5 -114 -9
-105 -35 5 -12 28 -15 135 -15 93 0 133 -4 140 -13 22 -27 -3 -36 -103 -39
-92 -3 -100 -5 -100 -23 0 -15 8 -21 30 -23 29 -3 30 -5 27 -43 -5 -46 10 -69
46 -69 17 0 35 -11 52 -32 39 -47 101 -47 140 0 l26 32 141 0 141 0 35 -35
c19 -19 45 -35 56 -35 32 0 79 27 86 49 4 14 17 21 43 23 37 3 37 4 40 51 2
35 -1 49 -12 53 -12 5 -16 21 -16 64 0 70 -14 85 -87 95 -51 7 -55 9 -96 68
l-43 62 -252 3 -251 2 -17 -25z m176 -326 c9 -16 8 -26 -5 -45 -20 -31 -50
-31 -70 0 -23 34 -5 66 35 66 19 0 33 -7 40 -21z m474 5 c12 -32 6 -55 -19
-66 -21 -9 -28 -8 -45 7 -37 33 -19 75 31 75 15 0 29 -7 33 -16z"/>
<path d="M20 253 c0 -70 14 -100 59 -130 30 -20 46 -23 132 -23 92 0 99 -1 99
-20 0 -11 5 -20 10 -20 20 0 121 63 113 70 -4 4 -34 22 -65 40 l-58 32 0 -27
0 -27 -96 4 c-91 3 -97 5 -120 31 -18 22 -24 40 -24 78 0 46 -2 49 -25 49 -24
0 -25 -3 -25 -57z"/>
</g>
</svg>
