<?xml version="1.0" encoding="utf-8"?>
<!-- Generator: Adobe Illustrator 26.0.1, SVG Export Plug-In . SVG Version: 6.00 Build 0)  -->
<svg version="1.1" id="Layer_1" xmlns="http://www.w3.org/2000/svg" xmlns:xlink="http://www.w3.org/1999/xlink" x="0px" y="0px"
	 viewBox="0 0 100 100" style="enable-background:new 0 0 100 100;" xml:space="preserve">
<style type="text/css">
	.st0{display:none;}
	.st1{display:inline;}
	.st2{fill:#010101;}
	.st3{fill:#FFFFFF;}
	.st4{display:inline;fill:none;stroke:#010101;stroke-width:14;stroke-linecap:round;stroke-linejoin:round;stroke-miterlimit:10;}
	
		.st5{display:inline;fill:#FFFFFF;stroke:#010101;stroke-width:14;stroke-linecap:round;stroke-linejoin:round;stroke-miterlimit:10;}
</style>
<g class="st0">
	<g class="st1">
		<path class="st2" d="M46.14,52.57c-0.23,0-0.46-0.06-0.67-0.16c-0.34-0.18-0.59-0.48-0.7-0.84l-8.49-27.3
			c-0.23-0.75,0.19-1.56,0.94-1.79l27.3-8.49c0.76-0.23,1.56,0.19,1.79,0.94l8.49,27.3c0.11,0.36,0.08,0.75-0.1,1.09
			c-0.18,0.34-0.48,0.59-0.84,0.7l-27.3,8.49C46.43,52.55,46.28,52.57,46.14,52.57z M39.44,24.78l7.64,24.57l24.57-7.64l-7.64-24.57
			L39.44,24.78z"/>
	</g>
	<g class="st1">
		<path class="st2" d="M55.38,82.39c-0.23,0-0.46-0.06-0.67-0.16c-0.34-0.18-0.59-0.48-0.7-0.84l-8.86-28.5
			c-0.23-0.75,0.19-1.56,0.94-1.79l34.37-10.69c0.75-0.23,1.56,0.19,1.79,0.94l8.86,28.5c0.11,0.36,0.08,0.75-0.1,1.09
			c-0.18,0.34-0.48,0.59-0.84,0.7L55.81,82.33C55.67,82.37,55.53,82.39,55.38,82.39z M48.31,53.4l8.01,25.77l31.64-9.84l-8.01-25.77
			L48.31,53.4z"/>
	</g>
	<g class="st1">
		<path class="st2" d="M80.57,79.62c-0.61,0-1.17-0.39-1.37-1.01c-0.23-0.75,0.19-1.56,0.94-1.79l10.11-3.14
			c0.75-0.23,1.56,0.19,1.79,0.94c0.23,0.75-0.19,1.56-0.94,1.79L81,79.55C80.86,79.59,80.71,79.62,80.57,79.62z"/>
	</g>
	<g class="st1">
		<path class="st2" d="M53.11,88.07c-1.36,0-2.61-0.87-3.04-2.23L28.11,15.2L8.65,4.98c-0.7-0.37-0.97-1.23-0.6-1.93
			c0.37-0.7,1.23-0.97,1.93-0.6l19.98,10.5c0.34,0.18,0.59,0.48,0.7,0.84l22.14,71.2c0.05,0.17,0.23,0.26,0.4,0.21l23.8-7.4
			c0.36-0.11,0.75-0.08,1.09,0.1l11.5,6.05c0.7,0.37,0.97,1.23,0.6,1.93c-0.37,0.7-1.23,0.97-1.93,0.6L77.29,80.7l-23.24,7.23
			C53.74,88.03,53.42,88.07,53.11,88.07z"/>
	</g>
	<g class="st1">
		
			<ellipse transform="matrix(0.9999 -0.015 0.015 0.9999 -1.2826 0.8038)" class="st3" cx="53.03" cy="86.04" rx="10.25" ry="10.25"/>
		<path class="st2" d="M53.03,97.72c-4.98,0-9.61-3.21-11.16-8.21c-0.93-2.98-0.64-6.14,0.81-8.9c1.45-2.76,3.89-4.79,6.87-5.72
			c6.15-1.91,12.71,1.54,14.62,7.68v0c0.93,2.98,0.64,6.14-0.81,8.9c-1.45,2.76-3.89,4.79-6.87,5.72
			C55.35,97.55,54.18,97.72,53.03,97.72z M53.02,77.22c-0.87,0-1.74,0.13-2.61,0.4c-2.25,0.7-4.09,2.23-5.19,4.32
			c-1.1,2.09-1.31,4.47-0.61,6.72c1.44,4.64,6.4,7.25,11.04,5.8c2.25-0.7,4.09-2.23,5.19-4.32c1.1-2.09,1.31-4.47,0.61-6.72v0
			C60.28,79.64,56.78,77.22,53.02,77.22z"/>
	</g>
	<g class="st1">
		
			<ellipse transform="matrix(0.9787 -0.2052 0.2052 0.9787 -16.5255 12.7112)" class="st3" cx="53.03" cy="86.04" rx="4.46" ry="4.46"/>
		<path class="st2" d="M53.02,91.93c-0.94,0-1.88-0.23-2.73-0.68c-1.39-0.73-2.42-1.96-2.88-3.46c-0.47-1.5-0.32-3.1,0.41-4.49
			c0.73-1.39,1.96-2.42,3.46-2.88c3.1-0.96,6.41,0.77,7.37,3.87c0.47,1.5,0.32,3.1-0.41,4.49c-0.73,1.39-1.96,2.42-3.46,2.88
			C54.2,91.84,53.61,91.93,53.02,91.93z M53.03,83.01c-0.3,0-0.6,0.04-0.9,0.14c-0.77,0.24-1.41,0.77-1.78,1.48
			c-0.38,0.72-0.45,1.54-0.21,2.31c0.24,0.77,0.77,1.41,1.48,1.78c0.72,0.38,1.54,0.45,2.31,0.21c0.77-0.24,1.41-0.77,1.78-1.48
			c0.38-0.72,0.45-1.54,0.21-2.31C55.52,83.84,54.32,83.01,53.03,83.01z"/>
	</g>
</g>
<g class="st0">
	<g class="st1">
		<path class="st2" d="M63.72,69.16H25.23c-0.09,0-0.18-0.01-0.28-0.02h-5.29c-0.51,0-0.92-0.43-0.92-0.96
			c0-0.53,0.41-0.96,0.92-0.96H25c0.04,0,0.08,0,0.12,0.01c0.05,0.01,0.08,0.01,0.11,0.01h38.48c1.83,0,3.32-1.55,3.32-3.45V32.42
			c0-1.9-1.49-3.45-3.32-3.45H18.93c-0.51,0-0.92-0.43-0.92-0.96c0-0.53,0.41-0.96,0.92-0.96h44.79c2.84,0,5.16,2.41,5.16,5.36V63.8
			C68.88,66.76,66.56,69.16,63.72,69.16z"/>
	</g>
	<g class="st1">
		<path class="st2" d="M14.89,28.97h-1.7c-0.51,0-0.92-0.43-0.92-0.96c0-0.53,0.41-0.96,0.92-0.96h1.7c0.51,0,0.92,0.43,0.92,0.96
			C15.81,28.54,15.4,28.97,14.89,28.97z"/>
	</g>
	<g class="st1">
		<path class="st2" d="M16.12,69.15h-3.5c-0.51,0-0.92-0.43-0.92-0.96c0-0.53,0.41-0.96,0.92-0.96h3.5c0.51,0,0.92,0.43,0.92,0.96
			C17.04,68.72,16.63,69.15,16.12,69.15z"/>
	</g>
	<g class="st1">
		<g>
			<path class="st2" d="M23.23,34.06h-9.71c-0.51,0-0.92-0.43-0.92-0.96c0-0.53,0.41-0.96,0.92-0.96h9.71
				c0.51,0,0.92,0.43,0.92,0.96C24.15,33.64,23.74,34.06,23.23,34.06z"/>
		</g>
		<g>
			<path class="st2" d="M27.14,39.05h-6.95c-0.51,0-0.92-0.43-0.92-0.96c0-0.53,0.41-0.96,0.92-0.96h6.95
				c0.51,0,0.92,0.43,0.92,0.96C28.06,38.62,27.65,39.05,27.14,39.05z"/>
		</g>
		<g>
			<path class="st2" d="M25.62,44.03H10.43c-0.51,0-0.92-0.43-0.92-0.96s0.41-0.96,0.92-0.96h15.19c0.51,0,0.92,0.43,0.92,0.96
				S26.13,44.03,25.62,44.03z"/>
		</g>
		<g>
			<path class="st2" d="M29.39,49.02h-13c-0.51,0-0.92-0.43-0.92-0.96s0.41-0.96,0.92-0.96h13c0.51,0,0.92,0.43,0.92,0.96
				S29.9,49.02,29.39,49.02z"/>
		</g>
		<g>
			<path class="st2" d="M33.57,54.01h-12.1c-0.51,0-0.92-0.43-0.92-0.96c0-0.53,0.41-0.96,0.92-0.96h12.1
				c0.51,0,0.92,0.43,0.92,0.96C34.49,53.58,34.08,54.01,33.57,54.01z"/>
		</g>
		<g>
			<path class="st2" d="M27.14,58.99H14.01c-0.51,0-0.92-0.43-0.92-0.96c0-0.53,0.41-0.96,0.92-0.96h13.14
				c0.51,0,0.92,0.43,0.92,0.96C28.06,58.56,27.65,58.99,27.14,58.99z"/>
		</g>
		<g>
			<path class="st2" d="M24.49,63.98H12c-0.51,0-0.92-0.43-0.92-0.96s0.41-0.96,0.92-0.96h12.5c0.51,0,0.92,0.43,0.92,0.96
				S25,63.98,24.49,63.98z"/>
		</g>
		<g>
			<path class="st2" d="M7.26,44.03H4.63c-0.51,0-0.92-0.43-0.92-0.96s0.41-0.96,0.92-0.96h2.63c0.51,0,0.92,0.43,0.92,0.96
				S7.77,44.03,7.26,44.03z"/>
		</g>
		<g>
			<path class="st2" d="M4.59,49.03H4.26c-0.51,0-0.92-0.43-0.92-0.96s0.41-0.96,0.92-0.96h0.33c0.51,0,0.92,0.43,0.92,0.96
				S5.09,49.03,4.59,49.03z"/>
		</g>
		<g>
			<path class="st2" d="M10.08,54.01H8.73c-0.51,0-0.92-0.43-0.92-0.96c0-0.53,0.41-0.96,0.92-0.96h1.35c0.51,0,0.92,0.43,0.92,0.96
				C11,53.58,10.58,54.01,10.08,54.01z"/>
		</g>
		<g>
			<path class="st2" d="M16.75,39.05H9c-0.51,0-0.92-0.43-0.92-0.96c0-0.53,0.41-0.96,0.92-0.96h7.75c0.51,0,0.92,0.43,0.92,0.96
				C17.67,38.62,17.26,39.05,16.75,39.05z"/>
		</g>
		<g>
			<path class="st2" d="M12.69,49.02H8.38c-0.51,0-0.92-0.43-0.92-0.96s0.41-0.96,0.92-0.96h4.32c0.51,0,0.92,0.43,0.92,0.96
				S13.2,49.02,12.69,49.02z"/>
		</g>
		<g>
			<path class="st2" d="M17.67,54.01h-4.32c-0.51,0-0.92-0.43-0.92-0.96c0-0.53,0.41-0.96,0.92-0.96h4.32
				c0.51,0,0.92,0.43,0.92,0.96C18.59,53.58,18.18,54.01,17.67,54.01z"/>
		</g>
		<g>
			<path class="st2" d="M8.26,63.98H6.41c-0.51,0-0.92-0.43-0.92-0.96s0.41-0.96,0.92-0.96h1.85c0.51,0,0.92,0.43,0.92,0.96
				S8.77,63.98,8.26,63.98z"/>
		</g>
		<g>
			<path class="st2" d="M10.52,58.99H3.41c-0.51,0-0.92-0.43-0.92-0.96c0-0.53,0.41-0.96,0.92-0.96h7.11c0.51,0,0.92,0.43,0.92,0.96
				C11.44,58.56,11.02,58.99,10.52,58.99z"/>
		</g>
		<g>
			<path class="st2" d="M9.57,34.06H5.56c-0.51,0-0.92-0.43-0.92-0.96c0-0.53,0.41-0.96,0.92-0.96h4.01c0.51,0,0.92,0.43,0.92,0.96
				C10.49,33.64,10.08,34.06,9.57,34.06z"/>
		</g>
	</g>
	<path class="st4" d="M67.96,34.64v13.47h0v18.42c0,0.92,0.72,1.67,1.61,1.67H90.5c0.89,0,1.61-0.75,1.61-1.67V51.8
		c0-2.04-1.66-3.69-3.71-3.69h-0.63c-0.61,0-1.17-0.36-1.44-0.93l-5.41-11.39c-0.82-1.72-2.55-2.81-4.46-2.81h-6.89
		C68.68,32.97,67.96,33.72,67.96,34.64z"/>
	<path class="st4" d="M71.34,38.67c0-0.92,0.58-1.67,1.31-1.67h3.75c1.14,0,2.17,0.8,2.66,2.07l2.55,6.64
		c0.43,1.11-0.2,2.41-1.17,2.41h-7.79c-0.72,0-1.31-0.75-1.31-1.67V38.67z"/>
	<ellipse class="st5" cx="77.79" cy="67.66" rx="7.86" ry="8.17"/>
	<ellipse class="st5" cx="37.34" cy="67.66" rx="7.86" ry="8.17"/>
	<ellipse class="st5" cx="37.34" cy="67.66" rx="2.37" ry="2.46"/>
	<ellipse class="st5" cx="77.79" cy="67.66" rx="2.37" ry="2.46"/>
</g>
<g class="st0">
	<g class="st1">
		<path class="st2" d="M66.98,67.64H27.18c-0.09,0-0.19-0.01-0.29-0.02h-5.47c-0.53,0-0.95-0.43-0.95-0.95s0.43-0.95,0.95-0.95h5.53
			c0.04,0,0.08,0,0.12,0.01c0.05,0.01,0.09,0.01,0.12,0.01h39.79c1.89,0,3.43-1.54,3.43-3.43V31.07c0-1.89-1.54-3.43-3.43-3.43
			H20.67c-0.53,0-0.95-0.43-0.95-0.95c0-0.53,0.43-0.95,0.95-0.95h46.31c2.94,0,5.33,2.39,5.33,5.33V62.3
			C72.31,65.24,69.92,67.64,66.98,67.64z"/>
	</g>
	<g class="st1">
		<path class="st2" d="M16.49,27.64h-1.76c-0.53,0-0.95-0.43-0.95-0.95c0-0.53,0.43-0.95,0.95-0.95h1.76c0.53,0,0.95,0.43,0.95,0.95
			C17.44,27.21,17.01,27.64,16.49,27.64z"/>
	</g>
	<g class="st1">
		<path class="st2" d="M17.76,67.62h-3.62c-0.53,0-0.95-0.43-0.95-0.95s0.43-0.95,0.95-0.95h3.62c0.53,0,0.95,0.43,0.95,0.95
			S18.29,67.62,17.76,67.62z"/>
	</g>
	<g class="st1">
		<g>
			<path class="st2" d="M25.12,32.71H15.07c-0.53,0-0.95-0.43-0.95-0.95c0-0.53,0.43-0.95,0.95-0.95h10.04
				c0.53,0,0.95,0.43,0.95,0.95C26.07,32.28,25.64,32.71,25.12,32.71z"/>
		</g>
		<g>
			<path class="st2" d="M29.16,37.67h-7.19c-0.53,0-0.95-0.43-0.95-0.95c0-0.53,0.43-0.95,0.95-0.95h7.19
				c0.53,0,0.95,0.43,0.95,0.95C30.11,37.24,29.68,37.67,29.16,37.67z"/>
		</g>
		<g>
			<path class="st2" d="M27.58,42.63H11.88c-0.53,0-0.95-0.43-0.95-0.95c0-0.53,0.43-0.95,0.95-0.95h15.71
				c0.53,0,0.95,0.43,0.95,0.95C28.53,42.21,28.11,42.63,27.58,42.63z"/>
		</g>
		<g>
			<path class="st2" d="M31.49,47.59H18.04c-0.53,0-0.95-0.43-0.95-0.95s0.43-0.95,0.95-0.95h13.45c0.53,0,0.95,0.43,0.95,0.95
				S32.01,47.59,31.49,47.59z"/>
		</g>
		<g>
			<path class="st2" d="M35.8,52.55H23.29c-0.53,0-0.95-0.43-0.95-0.95s0.43-0.95,0.95-0.95H35.8c0.53,0,0.95,0.43,0.95,0.95
				S36.33,52.55,35.8,52.55z"/>
		</g>
		<g>
			<path class="st2" d="M29.16,57.51H15.58c-0.53,0-0.95-0.43-0.95-0.95s0.43-0.95,0.95-0.95h13.58c0.53,0,0.95,0.43,0.95,0.95
				S29.68,57.51,29.16,57.51z"/>
		</g>
		<g>
			<path class="st2" d="M26.42,62.47H13.5c-0.53,0-0.95-0.43-0.95-0.95s0.43-0.95,0.95-0.95h12.92c0.53,0,0.95,0.43,0.95,0.95
				S26.94,62.47,26.42,62.47z"/>
		</g>
		<g>
			<path class="st2" d="M8.6,42.63H5.88c-0.53,0-0.95-0.43-0.95-0.95c0-0.53,0.43-0.95,0.95-0.95H8.6c0.53,0,0.95,0.43,0.95,0.95
				C9.55,42.21,9.13,42.63,8.6,42.63z"/>
		</g>
		<g>
			<path class="st2" d="M5.84,47.6H5.5c-0.53,0-0.95-0.43-0.95-0.95S4.97,45.7,5.5,45.7h0.34c0.53,0,0.95,0.43,0.95,0.95
				S6.36,47.6,5.84,47.6z"/>
		</g>
		<g>
			<path class="st2" d="M11.51,52.55h-1.39c-0.53,0-0.95-0.43-0.95-0.95s0.43-0.95,0.95-0.95h1.39c0.53,0,0.95,0.43,0.95,0.95
				S12.04,52.55,11.51,52.55z"/>
		</g>
		<g>
			<path class="st2" d="M18.42,37.67h-8.01c-0.53,0-0.95-0.43-0.95-0.95c0-0.53,0.43-0.95,0.95-0.95h8.01
				c0.53,0,0.95,0.43,0.95,0.95C19.37,37.24,18.94,37.67,18.42,37.67z"/>
		</g>
		<g>
			<path class="st2" d="M14.22,47.59H9.75c-0.53,0-0.95-0.43-0.95-0.95s0.43-0.95,0.95-0.95h4.46c0.53,0,0.95,0.43,0.95,0.95
				S14.74,47.59,14.22,47.59z"/>
		</g>
		<g>
			<path class="st2" d="M19.37,52.55H14.9c-0.53,0-0.95-0.43-0.95-0.95s0.43-0.95,0.95-0.95h4.46c0.53,0,0.95,0.43,0.95,0.95
				S19.89,52.55,19.37,52.55z"/>
		</g>
		<g>
			<path class="st2" d="M9.64,62.47H7.72c-0.53,0-0.95-0.43-0.95-0.95s0.43-0.95,0.95-0.95h1.92c0.53,0,0.95,0.43,0.95,0.95
				S10.17,62.47,9.64,62.47z"/>
		</g>
		<g>
			<path class="st2" d="M11.97,57.51H4.62c-0.53,0-0.95-0.43-0.95-0.95s0.43-0.95,0.95-0.95h7.35c0.53,0,0.95,0.43,0.95,0.95
				S12.49,57.51,11.97,57.51z"/>
		</g>
		<g>
			<path class="st2" d="M10.99,32.71H6.84c-0.53,0-0.95-0.43-0.95-0.95c0-0.53,0.43-0.95,0.95-0.95h4.14c0.53,0,0.95,0.43,0.95,0.95
				C11.94,32.28,11.51,32.71,10.99,32.71z"/>
		</g>
	</g>
	<path class="st4" d="M71.36,33.28v13.4h0v18.33c0,0.92,0.75,1.67,1.67,1.67h21.64c0.92,0,1.67-0.75,1.67-1.67V50.36
		c0-2.03-1.72-3.68-3.83-3.68h-0.66c-0.63,0-1.21-0.36-1.49-0.93l-5.59-11.34c-0.84-1.71-2.64-2.8-4.61-2.8h-7.12
		C72.1,31.62,71.36,32.36,71.36,33.28z"/>
	<path class="st4" d="M74.85,37.29c0-0.92,0.6-1.67,1.35-1.67h3.88c1.17,0,2.24,0.8,2.75,2.06l2.64,6.6c0.44,1.11-0.21,2.4-1.21,2.4
		H76.2c-0.75,0-1.35-0.75-1.35-1.67V37.29z"/>
	<circle class="st5" cx="81.53" cy="66.14" r="8.13"/>
	<circle class="st5" cx="39.71" cy="66.14" r="8.13"/>
	
		<ellipse transform="matrix(0.9662 -0.2578 0.2578 0.9662 -15.7052 12.4688)" class="st5" cx="39.71" cy="66.14" rx="2.45" ry="2.45"/>
	
		<ellipse transform="matrix(0.9732 -0.2298 0.2298 0.9732 -13.014 20.5004)" class="st5" cx="81.53" cy="66.14" rx="2.45" ry="2.45"/>
</g>
<g class="st0">
	<g class="st1">
		<path class="st2" d="M43.63,55.63h-54.59c-0.13,0-0.26-0.01-0.4-0.02h-7.5c-0.72,0-1.3-0.58-1.3-1.3c0-0.72,0.58-1.3,1.3-1.3h7.58
			c0.06,0,0.11,0,0.17,0.01c0.07,0.01,0.12,0.01,0.16,0.01h54.59c2.6,0,4.71-2.11,4.71-4.71V5.47c0-2.6-2.11-4.71-4.71-4.71H-19.9
			c-0.72,0-1.3-0.58-1.3-1.3s0.58-1.3,1.3-1.3h63.53c4.04,0,7.32,3.28,7.32,7.32v42.84C50.94,52.35,47.66,55.63,43.63,55.63z"/>
	</g>
	<g class="st1">
		<path class="st2" d="M-25.63,0.77h-2.41c-0.72,0-1.3-0.58-1.3-1.3s0.58-1.3,1.3-1.3h2.41c0.72,0,1.3,0.58,1.3,1.3
			S-24.91,0.77-25.63,0.77z"/>
	</g>
	<g class="st1">
		<path class="st2" d="M-23.89,55.61h-4.97c-0.72,0-1.3-0.58-1.3-1.3c0-0.72,0.58-1.3,1.3-1.3h4.97c0.72,0,1.3,0.58,1.3,1.3
			C-22.58,55.03-23.17,55.61-23.89,55.61z"/>
	</g>
	<g class="st1">
		<g>
			<path class="st2" d="M-13.79,7.72h-13.78c-0.72,0-1.3-0.58-1.3-1.3c0-0.72,0.58-1.3,1.3-1.3h13.78c0.72,0,1.3,0.58,1.3,1.3
				C-12.49,7.14-13.07,7.72-13.79,7.72z"/>
		</g>
		<g>
			<path class="st2" d="M-8.25,14.53h-9.86c-0.72,0-1.3-0.58-1.3-1.3c0-0.72,0.58-1.3,1.3-1.3h9.86c0.72,0,1.3,0.58,1.3,1.3
				C-6.95,13.94-7.53,14.53-8.25,14.53z"/>
		</g>
		<g>
			<path class="st2" d="M-10.41,21.33h-21.55c-0.72,0-1.3-0.58-1.3-1.3c0-0.72,0.58-1.3,1.3-1.3h21.55c0.72,0,1.3,0.58,1.3,1.3
				C-9.11,20.75-9.69,21.33-10.41,21.33z"/>
		</g>
		<g>
			<path class="st2" d="M-5.06,28.14H-23.5c-0.72,0-1.3-0.58-1.3-1.3c0-0.72,0.58-1.3,1.3-1.3h18.45c0.72,0,1.3,0.58,1.3,1.3
				C-3.75,27.55-4.34,28.14-5.06,28.14z"/>
		</g>
		<g>
			<path class="st2" d="M0.86,34.94H-16.3c-0.72,0-1.3-0.58-1.3-1.3s0.58-1.3,1.3-1.3H0.86c0.72,0,1.3,0.58,1.3,1.3
				S1.58,34.94,0.86,34.94z"/>
		</g>
		<g>
			<path class="st2" d="M-8.25,41.75h-18.63c-0.72,0-1.3-0.58-1.3-1.3c0-0.72,0.58-1.3,1.3-1.3h18.63c0.72,0,1.3,0.58,1.3,1.3
				C-6.95,41.16-7.53,41.75-8.25,41.75z"/>
		</g>
		<g>
			<path class="st2" d="M-12.01,48.55h-17.72c-0.72,0-1.3-0.58-1.3-1.3c0-0.72,0.58-1.3,1.3-1.3h17.72c0.72,0,1.3,0.58,1.3,1.3
				C-10.7,47.97-11.29,48.55-12.01,48.55z"/>
		</g>
		<g>
			<path class="st2" d="M-36.45,21.33h-3.73c-0.72,0-1.3-0.58-1.3-1.3c0-0.72,0.58-1.3,1.3-1.3h3.73c0.72,0,1.3,0.58,1.3,1.3
				C-35.15,20.75-35.73,21.33-36.45,21.33z"/>
		</g>
		<g>
			<path class="st2" d="M-40.25,28.15h-0.46c-0.72,0-1.3-0.58-1.3-1.3s0.58-1.3,1.3-1.3h0.46c0.72,0,1.3,0.58,1.3,1.3
				S-39.53,28.15-40.25,28.15z"/>
		</g>
		<g>
			<path class="st2" d="M-32.46,34.94h-1.91c-0.72,0-1.3-0.58-1.3-1.3s0.58-1.3,1.3-1.3h1.91c0.72,0,1.3,0.58,1.3,1.3
				S-31.74,34.94-32.46,34.94z"/>
		</g>
		<g>
			<path class="st2" d="M-22.99,14.53h-10.99c-0.72,0-1.3-0.58-1.3-1.3c0-0.72,0.58-1.3,1.3-1.3h10.99c0.72,0,1.3,0.58,1.3,1.3
				C-21.68,13.94-22.27,14.53-22.99,14.53z"/>
		</g>
		<g>
			<path class="st2" d="M-28.75,28.14h-6.12c-0.72,0-1.3-0.58-1.3-1.3c0-0.72,0.58-1.3,1.3-1.3h6.12c0.72,0,1.3,0.58,1.3,1.3
				C-27.44,27.55-28.03,28.14-28.75,28.14z"/>
		</g>
		<g>
			<path class="st2" d="M-21.69,34.94h-6.12c-0.72,0-1.3-0.58-1.3-1.3s0.58-1.3,1.3-1.3h6.12c0.72,0,1.3,0.58,1.3,1.3
				S-20.97,34.94-21.69,34.94z"/>
		</g>
		<g>
			<path class="st2" d="M-35.03,48.55h-2.63c-0.72,0-1.3-0.58-1.3-1.3c0-0.72,0.58-1.3,1.3-1.3h2.63c0.72,0,1.3,0.58,1.3,1.3
				C-33.72,47.97-34.31,48.55-35.03,48.55z"/>
		</g>
		<g>
			<path class="st2" d="M-31.83,41.75h-10.08c-0.72,0-1.3-0.58-1.3-1.3c0-0.72,0.58-1.3,1.3-1.3h10.08c0.72,0,1.3,0.58,1.3,1.3
				C-30.53,41.16-31.11,41.75-31.83,41.75z"/>
		</g>
		<g>
			<path class="st2" d="M-33.18,7.72h-5.68c-0.72,0-1.3-0.58-1.3-1.3c0-0.72,0.58-1.3,1.3-1.3h5.68c0.72,0,1.3,0.58,1.3,1.3
				C-31.88,7.14-32.46,7.72-33.18,7.72z"/>
		</g>
	</g>
	<path class="st4" d="M49.64,8.51v18.38h0v25.15c0,1.26,1.02,2.28,2.28,2.28h29.69c1.26,0,2.28-1.02,2.28-2.28V31.94
		c0-2.78-2.36-5.04-5.26-5.04h-0.9c-0.87,0-1.66-0.49-2.05-1.27l-7.67-15.55c-1.16-2.35-3.62-3.84-6.33-3.84h-9.77
		C50.66,6.23,49.64,7.25,49.64,8.51z"/>
	<path class="st4" d="M54.43,14.01c0-1.26,0.83-2.28,1.85-2.28h5.32c1.61,0,3.08,1.1,3.77,2.82l3.62,9.06
		c0.61,1.52-0.29,3.3-1.66,3.3H56.28c-1.02,0-1.85-1.02-1.85-2.28V14.01z"/>
	
		<ellipse transform="matrix(0.9662 -0.2578 0.2578 0.9662 -13.5995 3.4125)" class="st5" cx="6.22" cy="53.58" rx="3.36" ry="3.36"/>
	
		<ellipse transform="matrix(0.9732 -0.2298 0.2298 0.9732 -10.6083 16.0429)" class="st5" cx="63.59" cy="53.58" rx="3.36" ry="3.36"/>
</g>
<g>
	<path class="st2" d="M96.12,56.02l-4.27-1.62l-7.17-12.94c-1.22-2.2-4.04-3.71-7.2-3.85l-10.04-0.42
		c-0.99-0.04-2.72,0.31-4.05,1.01c-0.05-0.06-0.11-0.12-0.17-0.17c-0.57-0.53-1.37-0.83-2.19-0.83h-6.7c-0.69,0-1.25,0.49-1.25,1.09
		s0.56,1.09,1.25,1.09h6.7c0.19,0,0.32,0.09,0.38,0.14c0.06,0.06,0.16,0.18,0.15,0.37l-1.87,26.79H35.53
		c-1.07-0.53-2.22-0.9-3.44-1.11c-2.35-0.4-4.83-0.13-7.17,0.78c-0.26,0.1-0.51,0.21-0.76,0.33H3.91l2.42-26.86
		c0.02-0.25,0.25-0.44,0.53-0.44h5.96c0.69,0,1.25-0.49,1.25-1.09s-0.56-1.09-1.25-1.09H6.85c-1.57,0-2.89,1.07-3.01,2.44
		L1.31,67.67c0,0.01,0,0.01,0,0.02c0,0.01,0,0.01,0,0.02L1.1,72.25c-0.07,1.52,0.42,2.95,1.29,3.74c0.49,0.45,1.09,0.68,1.73,0.68
		h16.49c0.47,1.23,1.27,2.37,2.39,3.34c1.9,1.65,4.35,2.51,6.92,2.51c1.46,0,2.96-0.28,4.42-0.84c1.99-0.77,3.58-2.15,4.47-3.89
		c0.19-0.37,0.35-0.74,0.48-1.12h19.45c0.64,0,1.22-0.23,1.71-0.63c1.26,0.71,3.23,0.96,4.06,0.96c0.01,0,0.01,0,0.02,0l5-0.07
		c0.47,1.22,1.27,2.35,2.38,3.32c1.89,1.65,4.35,2.51,6.92,2.51c1.46,0,2.96-0.28,4.41-0.84c1.99-0.77,3.58-2.15,4.47-3.89
		c0.17-0.34,0.32-0.68,0.45-1.02h6.86c1.65,0,3.04-1.04,3.15-2.37c0-0.01,0-0.02,0-0.04L98.9,59.9
		C98.98,58.24,97.87,56.68,96.12,56.02z M21.81,69.01c-0.3,0.38-0.56,0.78-0.73,1.16c-0.73,1.43-1.04,2.91-0.94,4.33H4.21
		c-0.22-0.17-0.67-0.97-0.61-2.16l0.16-3.49h18.19C21.9,68.9,21.86,68.95,21.81,69.01z M37.25,74.38c-0.03,0.27-0.08,0.57-0.14,0.94
		c-0.12,0.53-0.32,1.06-0.58,1.58c-0.64,1.24-1.78,2.23-3.2,2.79c-3.05,1.18-6.33,0.72-8.55-1.22c-0.99-0.86-1.65-1.91-1.95-3.04
		c-0.09-1.54-0.09-2.87,0.57-4.43c0.14-0.27,0.31-0.53,0.5-0.78c0.08-0.11,0.17-0.21,0.26-0.32c0.63-0.71,1.46-1.29,2.43-1.66
		c2.6-1.01,5.37-0.82,7.5,0.46c0,0,0,0,0,0c0.94,0.62,2.57,1.99,3.09,4.2C37.26,73.38,37.28,73.88,37.25,74.38z M59.38,72.31
		l-0.05,0.8c-0.12,0.81-0.47,1.29-0.64,1.39H39.75c0-0.04,0-0.08,0.01-0.12c0.05-0.53,0.04-1.04-0.08-1.64
		c0-0.02-0.01-0.04-0.01-0.06c-0.23-1.35-0.83-2.64-1.79-3.77l21.65-0.07L59.38,72.31z M85.42,77.14c-0.64,1.24-1.77,2.23-3.2,2.79
		c-3.05,1.18-6.33,0.72-8.55-1.22c-0.99-0.86-1.65-1.91-1.95-3.04c-0.02-0.23-0.03-0.45-0.05-0.66c-0.06-0.75-0.11-1.4-0.01-2.04
		c0.06-0.29,0.14-0.57,0.24-0.86c0.68-1.7,1.47-2.55,3.19-3.47c0.12-0.06,0.25-0.11,0.38-0.16h0c1.12-0.43,2.27-0.65,3.38-0.65
		c1.93,0,3.76,0.64,5.17,1.86c0.14,0.12,0.26,0.24,0.39,0.36c0.03,0.04,0.07,0.07,0.1,0.11c0.11,0.12,0.21,0.24,0.31,0.35
		C86.36,72.39,86.6,74.84,85.42,77.14z M96.41,59.8l-0.74,14.68c-0.02,0.17-0.3,0.35-0.66,0.35h-6.36c0.01-0.14,0.02-0.29,0.02-0.44
		c0-0.04,0-0.07,0-0.11c0-0.04,0-0.08,0-0.11c0-0.41-0.03-0.82-0.1-1.22c-0.2-1.31-0.66-2.36-1.52-3.46
		c-0.03-0.03-0.05-0.07-0.08-0.1c-0.01-0.01-0.01-0.02-0.02-0.03c-0.2-0.25-0.42-0.5-0.65-0.73c-1.5-1.56-3.23-2.49-5.29-2.83
		c-2.63-0.44-5.1-0.11-7.14,0.96c-1.71,0.8-3.07,2.07-3.86,3.63c-0.18,0.35-0.34,0.71-0.47,1.07c0,0.01-0.01,0.01-0.01,0.02
		c-0.15,0.38-0.25,0.75-0.31,1.1c-0.16,0.73-0.21,1.47-0.16,2.19l-4.55,0.07c-0.86,0-2.3-0.34-2.74-0.63l0.06-0.88
		c0.02-0.18,0.04-0.37,0.05-0.56l0.01-0.35l2.17-31.88c0.25-0.46,2.19-1.22,3.28-1.17l10.04,0.42c2.26,0.1,4.25,1.13,5.08,2.62
		l7.18,12.97c0.25,0.45,0.68,0.81,1.2,1.01l4.3,1.63C95.93,58.31,96.45,59.03,96.41,59.8z"/>
	<path class="st2" d="M79.79,45.37c-0.63-1.66-2.15-2.8-3.9-2.92l-5.31-0.34c-0.39-0.02-0.77,0.09-1.06,0.32
		c-0.31,0.24-0.5,0.59-0.52,0.96l-0.52,10.16c-0.04,0.73,0.56,1.35,1.37,1.4l11.66,0.75c0.04,0,0.07,0,0.11,0
		c0.44,0,0.86-0.18,1.14-0.49c0.33-0.36,0.42-0.84,0.25-1.29L79.79,45.37z M71.02,52.84l0.44-8.5l4.25,0.28
		c0.73,0.05,1.4,0.61,1.71,1.43l2.79,7.39L71.02,52.84z"/>
	<path class="st2" d="M40.58,32.33c0-3.36-3.14-6.09-7-6.09c-3.86,0-7,2.73-7,6.09c0,3.36,3.14,6.09,7,6.09
		C37.44,38.42,40.58,35.69,40.58,32.33z M29.08,32.33c0-2.16,2.02-3.92,4.5-3.92c2.48,0,4.5,1.76,4.5,3.92
		c0,2.16-2.02,3.92-4.5,3.92C31.1,36.25,29.08,34.49,29.08,32.33z"/>
	<path class="st2" d="M32.95,59.05c0.24,0.18,0.53,0.27,0.83,0.27c0.32,0,0.63-0.1,0.87-0.31c0.69-0.59,16.79-14.46,16.79-26.22
		c0-8.57-8.01-15.54-17.85-15.54c-9.84,0-17.85,6.97-17.85,15.54c0,5.42,2.91,11.5,8.66,18.07C28.61,55.68,32.77,58.91,32.95,59.05z
		 M33.58,19.42c8.47,0,15.36,6,15.36,13.37c0,9.4-11.91,20.92-15.2,23.93c-3.39-2.83-15.51-13.68-15.51-23.93
		C18.22,25.41,25.11,19.42,33.58,19.42z"/>
</g>
</svg>
