<?xml version="1.0" standalone="no"?>
<!DOCTYPE svg PUBLIC "-//W3C//DTD SVG 20010904//EN"
 "http://www.w3.org/TR/2001/REC-SVG-20010904/DTD/svg10.dtd">
<svg version="1.0" xmlns="http://www.w3.org/2000/svg"
 width="76.000000pt" height="94.000000pt" viewBox="0 0 76.000000 94.000000"
 preserveAspectRatio="xMidYMid meet">

<g transform="translate(0.000000,94.000000) scale(0.100000,-0.100000)"
fill="#000000" stroke="none">
<path d="M12 918 c3 -7 43 -35 89 -61 l85 -49 83 -295 c74 -265 81 -296 68
-311 -43 -48 -43 -111 0 -162 49 -59 151 -31 168 47 4 15 8 33 10 38 1 6 26
18 55 27 53 17 53 17 95 -7 23 -14 47 -25 53 -25 24 0 11 21 -24 42 l-37 22
39 13 c21 7 43 18 48 23 24 24 -10 19 -113 -15 -61 -20 -116 -35 -123 -33 -7
3 41 23 107 45 94 31 121 44 123 59 1 10 -14 77 -35 149 l-38 130 -34 0 -34 0
-34 125 c-19 69 -38 129 -43 134 -12 12 -260 -73 -260 -89 0 -8 29 -119 65
-246 36 -127 64 -236 62 -243 -7 -16 -8 -11 -92 289 -42 149 -78 278 -81 287
-5 17 -171 118 -194 118 -6 0 -10 -6 -8 -12z m521 -239 c16 -55 30 -106 33
-114 4 -9 -27 -24 -102 -49 -59 -20 -109 -35 -110 -33 -4 5 -65 230 -62 232 8
6 185 64 198 64 11 1 23 -28 43 -100z m146 -274 c17 -61 31 -114 31 -117 0 -4
-50 -23 -111 -43 -106 -36 -113 -37 -144 -22 -29 14 -34 24 -59 112 -15 53
-26 99 -23 101 11 11 263 91 268 85 4 -3 21 -56 38 -116z m-222 -227 c16 -14
23 -33 23 -57 0 -74 -85 -110 -129 -55 -62 79 34 180 106 112z"/>
<path d="M370 160 c-11 -11 -20 -29 -20 -40 0 -25 34 -60 58 -60 46 0 69 72
34 103 -25 22 -48 21 -72 -3z m58 -38 c3 -16 -2 -22 -17 -22 -26 0 -36 17 -20
36 16 19 33 13 37 -14z"/>
</g>
</svg>
