<?xml version="1.0" encoding="utf-8"?>
<!-- Generator: Adobe Illustrator 26.0.1, SVG Export Plug-In . SVG Version: 6.00 Build 0)  -->
<svg version="1.1" id="Layer_1" xmlns="http://www.w3.org/2000/svg" xmlns:xlink="http://www.w3.org/1999/xlink" x="0px" y="0px"
	 viewBox="0 0 100 100" style="enable-background:new 0 0 100 100;" xml:space="preserve">
<style type="text/css">
	.st0{fill:#010101;}
	.st1{fill:#FFFFFF;}
</style>
<g>
	<g>
		<path class="st0" d="M46.14,52.57c-0.23,0-0.46-0.06-0.67-0.16c-0.34-0.18-0.59-0.48-0.7-0.84l-8.49-27.3
			c-0.23-0.75,0.19-1.56,0.94-1.79l27.3-8.49c0.76-0.23,1.56,0.19,1.79,0.94l8.49,27.3c0.11,0.36,0.08,0.75-0.1,1.09
			c-0.18,0.34-0.48,0.59-0.84,0.7l-27.3,8.49C46.43,52.55,46.28,52.57,46.14,52.57z M39.44,24.78l7.64,24.57l24.57-7.64l-7.64-24.57
			L39.44,24.78z"/>
	</g>
	<g>
		<path class="st0" d="M55.38,82.39c-0.23,0-0.46-0.06-0.67-0.16c-0.34-0.18-0.59-0.48-0.7-0.84l-8.86-28.5
			c-0.23-0.75,0.19-1.56,0.94-1.79l34.37-10.69c0.75-0.23,1.56,0.19,1.79,0.94l8.86,28.5c0.11,0.36,0.08,0.75-0.1,1.09
			c-0.18,0.34-0.48,0.59-0.84,0.7L55.81,82.33C55.67,82.37,55.53,82.39,55.38,82.39z M48.31,53.4l8.01,25.77l31.64-9.84l-8.01-25.77
			L48.31,53.4z"/>
	</g>
	<g>
		<path class="st0" d="M80.57,79.62c-0.61,0-1.17-0.39-1.37-1.01c-0.23-0.75,0.19-1.56,0.94-1.79l10.11-3.14
			c0.75-0.23,1.56,0.19,1.79,0.94c0.23,0.75-0.19,1.56-0.94,1.79L81,79.55C80.86,79.59,80.71,79.62,80.57,79.62z"/>
	</g>
	<g>
		<path class="st0" d="M53.11,88.07c-1.36,0-2.61-0.87-3.04-2.23L28.11,15.2L8.65,4.98c-0.7-0.37-0.97-1.23-0.6-1.93
			c0.37-0.7,1.23-0.97,1.93-0.6l19.98,10.5c0.34,0.18,0.59,0.48,0.7,0.84l22.14,71.2c0.05,0.17,0.23,0.26,0.4,0.21l23.8-7.4
			c0.36-0.11,0.75-0.08,1.09,0.1l11.5,6.05c0.7,0.37,0.97,1.23,0.6,1.93c-0.37,0.7-1.23,0.97-1.93,0.6L77.29,80.7l-23.24,7.23
			C53.74,88.03,53.42,88.07,53.11,88.07z"/>
	</g>
	<g>
		
			<ellipse transform="matrix(0.9999 -0.015 0.015 0.9999 -1.2826 0.8038)" class="st1" cx="53.03" cy="86.04" rx="10.25" ry="10.25"/>
		<path class="st0" d="M53.03,97.72c-4.98,0-9.61-3.21-11.16-8.21c-0.93-2.98-0.64-6.14,0.81-8.9c1.45-2.76,3.89-4.79,6.87-5.72
			c6.15-1.91,12.71,1.54,14.62,7.68v0c0.93,2.98,0.64,6.14-0.81,8.9c-1.45,2.76-3.89,4.79-6.87,5.72
			C55.35,97.55,54.18,97.72,53.03,97.72z M53.02,77.22c-0.87,0-1.74,0.13-2.61,0.4c-2.25,0.7-4.09,2.23-5.19,4.32
			c-1.1,2.09-1.31,4.47-0.61,6.72c1.44,4.64,6.4,7.25,11.04,5.8c2.25-0.7,4.09-2.23,5.19-4.32c1.1-2.09,1.31-4.47,0.61-6.72v0
			C60.28,79.64,56.78,77.22,53.02,77.22z"/>
	</g>
	<g>
		
			<ellipse transform="matrix(0.9787 -0.2052 0.2052 0.9787 -16.5255 12.7112)" class="st1" cx="53.03" cy="86.04" rx="4.46" ry="4.46"/>
		<path class="st0" d="M53.02,91.93c-0.94,0-1.88-0.23-2.73-0.68c-1.39-0.73-2.42-1.96-2.88-3.46c-0.47-1.5-0.32-3.1,0.41-4.49
			c0.73-1.39,1.96-2.42,3.46-2.88c3.1-0.96,6.41,0.77,7.37,3.87c0.47,1.5,0.32,3.1-0.41,4.49c-0.73,1.39-1.96,2.42-3.46,2.88
			C54.2,91.84,53.61,91.93,53.02,91.93z M53.03,83.01c-0.3,0-0.6,0.04-0.9,0.14c-0.77,0.24-1.41,0.77-1.78,1.48
			c-0.38,0.72-0.45,1.54-0.21,2.31c0.24,0.77,0.77,1.41,1.48,1.78c0.72,0.38,1.54,0.45,2.31,0.21c0.77-0.24,1.41-0.77,1.78-1.48
			c0.38-0.72,0.45-1.54,0.21-2.31C55.52,83.84,54.32,83.01,53.03,83.01z"/>
	</g>
</g>
</svg>
