<?xml version="1.0" encoding="UTF-8"?>
<!DOCTYPE svg PUBLIC "-//W3C//DTD SVG 1.1//EN" "http://www.w3.org/Graphics/SVG/1.1/DTD/svg11.dtd">
<svg xmlns="http://www.w3.org/2000/svg" version="1.1" width="100px" height="100px" style="shape-rendering:geometricPrecision; text-rendering:geometricPrecision; image-rendering:optimizeQuality; fill-rule:evenodd; clip-rule:evenodd" xmlns:xlink="http://www.w3.org/1999/xlink">
<g><path style="opacity:0.559" fill="#040707" d="M 67.5,76.5 C 66.2794,75.9717 65.1127,75.305 64,74.5C 61.1903,71.5355 59.0236,68.2022 57.5,64.5C 55.629,64.1412 54.129,63.1412 53,61.5C 50.4203,56.916 47.0869,52.916 43,49.5C 42.0754,50.0465 41.2421,50.7132 40.5,51.5C 42.9214,59.2936 44.088,67.2936 44,75.5C 45.284,80.8416 44.6173,80.8416 42,75.5C 41.9255,67.3748 40.9255,59.3748 39,51.5C 34.6667,46.1667 30.3333,40.8333 26,35.5C 26.0695,41.1867 26.7362,46.8533 28,52.5C 33.6428,61.4462 37.3095,71.1129 39,81.5C 41.405,81.964 43.905,82.1307 46.5,82C 49.2506,82.516 51.5839,83.6827 53.5,85.5C 52.91,86.7989 51.91,87.6322 50.5,88C 46.5138,88.4988 42.5138,88.6655 38.5,88.5C 36.9862,81.7742 35.1528,75.1076 33,68.5C 28.5,73 24,77.5 19.5,82C 23.7875,85.7552 23.1208,87.4219 17.5,87C 14.7807,84.6178 12.4474,81.9512 10.5,79C 14.2574,73.0728 18.924,67.9061 24.5,63.5C 26.6954,54.7684 26.3621,46.1018 23.5,37.5C 24.8786,32.5944 25.7119,27.5944 26,22.5C 27.6971,20.301 29.1971,17.9676 30.5,15.5C 27.3883,8.3415 29.7216,5.17483 37.5,6C 39.4926,7.5922 41.4926,9.0922 43.5,10.5C 41.4308,13.3205 39.4308,16.1538 37.5,19C 41.313,25.937 42.313,33.2704 40.5,41C 42.0064,45.3452 45.0064,48.0119 49.5,49C 50.2106,50.2547 51.044,51.4214 52,52.5C 55.9224,49.7886 59.7557,46.9553 63.5,44C 64.5,43.3333 65.5,43.3333 66.5,44C 73.6281,52.7968 81.1281,61.2968 89,69.5C 89.346,71.2182 89.846,72.8849 90.5,74.5C 85.5209,78.3114 80.6876,82.3114 76,86.5C 73.5634,83.8506 72.23,84.5172 72,88.5C 67.626,91.5433 64.7926,90.5433 63.5,85.5C 64.5701,82.3618 65.9034,79.3618 67.5,76.5 Z M 32.5,7.5 C 38.6509,8.12206 38.8176,9.12206 33,10.5C 31.3167,9.82352 31.1501,8.82352 32.5,7.5 Z M 35.5,11.5 C 39.3441,13.2914 39.5108,15.6248 36,18.5C 34.8333,17.3333 33.6667,16.1667 32.5,15C 33.7101,13.9609 34.7101,12.7942 35.5,11.5 Z M 30.5,19.5 C 37.8463,23.8464 39.3463,29.8464 35,37.5C 34.6258,36.5838 34.1258,35.7504 33.5,35C 34.883,32.306 35.383,29.4726 35,26.5C 33.8118,27.5634 33.3118,28.8967 33.5,30.5C 29.2936,31.0508 26.9603,29.2174 26.5,25C 27.965,23.2258 29.2983,21.3925 30.5,19.5 Z M 27.5,32.5 C 29.1667,32.5 30.8333,32.5 32.5,32.5C 32.4045,35.6916 33.0712,38.6916 34.5,41.5C 30.5103,39.8821 28.1769,36.8821 27.5,32.5 Z M 38.5,32.5 C 39.8299,35.4397 39.6633,38.4397 38,41.5C 37.3076,40.9747 36.8076,40.3081 36.5,39.5C 37.9459,37.3821 38.6126,35.0488 38.5,32.5 Z M 37.5,44.5 C 39.7279,45.3218 40.3946,46.6552 39.5,48.5C 37.8888,47.6798 37.2222,46.3464 37.5,44.5 Z M 57.5,64.5 C 56.2651,61.0417 54.2651,58.0417 51.5,55.5C 55.1431,52.8652 58.8098,50.1985 62.5,47.5C 64.9837,49.483 67.3171,51.6496 69.5,54C 65.9244,58.0816 61.9244,61.5816 57.5,64.5 Z M 27.5,56.5 C 29.5346,59.3995 31.2013,62.5662 32.5,66C 28.3184,70.3487 23.9851,74.5154 19.5,78.5C 17.7697,77.9744 16.4363,76.9744 15.5,75.5C 18.8523,71.314 22.6856,67.6474 27,64.5C 27.4974,61.854 27.6641,59.1873 27.5,56.5 Z M 69.5,56.5 C 72.8595,58.3408 75.8595,60.8408 78.5,64C 74.3825,67.15 70.5492,70.65 67,74.5C 64.872,71.3699 62.372,68.5366 59.5,66C 63.3341,63.3318 66.6675,60.1652 69.5,56.5 Z M 67.5,76.5 C 71.8758,73.2038 76.0424,69.5372 80,65.5C 82.8529,68.0518 85.3529,70.8851 87.5,74C 83.6667,77.1667 79.8333,80.3333 76,83.5C 73.5644,80.5532 70.7311,78.2199 67.5,76.5 Z M 18.5,84.5 C 16.1878,82.8545 14.1878,80.8545 12.5,78.5C 16.6178,77.9463 18.6178,79.9463 18.5,84.5 Z M 41.5,83.5 C 44.5641,83.1437 47.2307,83.9771 49.5,86C 46.1177,86.8236 42.7844,86.657 39.5,85.5C 40.2427,84.8182 40.9094,84.1515 41.5,83.5 Z M 66.5,83.5 C 70.8187,83.8418 71.3187,85.1751 68,87.5C 66.8118,86.4366 66.3118,85.1033 66.5,83.5 Z"/></g>
</svg>
