<?xml version="1.0" encoding="utf-8"?>
<!-- Generator: Adobe Illustrator 26.0.1, SVG Export Plug-In . SVG Version: 6.00 Build 0)  -->
<svg version="1.1" id="Layer_1" xmlns="http://www.w3.org/2000/svg" xmlns:xlink="http://www.w3.org/1999/xlink" x="0px" y="0px"
	 viewBox="0 0 100 100" style="enable-background:new 0 0 100 100;" xml:space="preserve">
<style type="text/css">
	.st0{fill:#010101;}
	.st1{fill:#FFFFFF;}
</style>
<g>
	<g>
		<path class="st0" d="M46.1,52.6c-0.23,0-0.46-0.06-0.67-0.17c-0.34-0.18-0.59-0.48-0.71-0.85l-8.59-27.61
			c-0.24-0.76,0.19-1.57,0.95-1.81l27.61-8.59c0.76-0.24,1.57,0.19,1.81,0.95l8.59,27.61c0.11,0.37,0.08,0.76-0.1,1.1
			c-0.18,0.34-0.48,0.59-0.85,0.71l-27.61,8.59C46.39,52.58,46.24,52.6,46.1,52.6z M39.32,24.5l7.73,24.85l24.85-7.73l-7.73-24.85
			L39.32,24.5z"/>
	</g>
	<g>
		<path class="st0" d="M55.44,82.76c-0.23,0-0.46-0.06-0.67-0.17c-0.34-0.18-0.59-0.48-0.71-0.85L45.1,52.92
			c-0.24-0.76,0.19-1.57,0.95-1.81L80.81,40.3c0.76-0.24,1.57,0.19,1.81,0.95l8.96,28.82c0.11,0.37,0.08,0.76-0.1,1.1
			c-0.18,0.34-0.48,0.59-0.85,0.71L55.87,82.69C55.73,82.73,55.59,82.76,55.44,82.76z M48.29,53.44l8.1,26.06l31.99-9.95l-8.1-26.06
			L48.29,53.44z"/>
	</g>
	<g>
		<path class="st0" d="M80.92,79.95c-0.62,0-1.19-0.4-1.38-1.02c-0.24-0.76,0.19-1.57,0.95-1.81l10.22-3.18
			c0.76-0.24,1.57,0.19,1.81,0.95c0.24,0.76-0.19,1.57-0.95,1.81l-10.22,3.18C81.2,79.93,81.06,79.95,80.92,79.95z"/>
	</g>
	<g>
		<path class="st0" d="M53.14,88.5c-1.37,0-2.64-0.88-3.07-2.26L27.86,14.81L8.19,4.47C7.48,4.1,7.21,3.22,7.58,2.52
			c0.37-0.71,1.25-0.98,1.95-0.61l20.2,10.62c0.34,0.18,0.59,0.48,0.71,0.85l22.39,72c0.05,0.17,0.24,0.26,0.4,0.21l24.07-7.49
			c0.37-0.11,0.76-0.08,1.1,0.1l11.63,6.11c0.71,0.37,0.98,1.25,0.61,1.95c-0.37,0.71-1.25,0.98-1.95,0.61l-11.1-5.84l-23.5,7.31
			C53.78,88.46,53.46,88.5,53.14,88.5z"/>
	</g>
	<g>
		
			<ellipse transform="matrix(0.9999 -0.015 0.015 0.9999 -1.2887 0.8044)" class="st1" cx="53.06" cy="86.44" rx="10.37" ry="10.37"/>
		<path class="st0" d="M53.07,98.26c-5.04,0-9.71-3.25-11.29-8.31c-0.94-3.01-0.64-6.21,0.82-9c1.47-2.79,3.94-4.85,6.95-5.78
			c6.22-1.93,12.85,1.55,14.79,7.77v0c0.94,3.01,0.64,6.21-0.82,9c-1.47,2.79-3.94,4.85-6.95,5.78
			C55.41,98.08,54.23,98.26,53.07,98.26z M53.06,77.52c-0.88,0-1.76,0.13-2.64,0.4c-2.27,0.71-4.14,2.26-5.25,4.37
			c-1.11,2.11-1.33,4.52-0.62,6.8c1.46,4.7,6.47,7.33,11.17,5.87c2.27-0.71,4.14-2.26,5.25-4.37c1.11-2.11,1.33-4.52,0.62-6.8v0
			C60.39,79.98,56.86,77.52,53.06,77.52z"/>
	</g>
	<g>
		
			<ellipse transform="matrix(0.9787 -0.2052 0.2052 0.9787 -16.6082 12.7268)" class="st1" cx="53.06" cy="86.44" rx="4.51" ry="4.51"/>
		<path class="st0" d="M53.05,92.4c-0.95,0-1.9-0.23-2.76-0.69c-1.41-0.74-2.44-1.98-2.92-3.5c-0.47-1.52-0.32-3.13,0.42-4.54
			c0.74-1.41,1.98-2.44,3.5-2.92c3.14-0.97,6.48,0.78,7.46,3.92c0.47,1.52,0.32,3.13-0.42,4.54c-0.74,1.41-1.98,2.44-3.5,2.92
			C54.25,92.31,53.65,92.4,53.05,92.4z M53.06,83.38c-0.3,0-0.61,0.04-0.91,0.14c-0.78,0.24-1.42,0.78-1.8,1.5
			c-0.38,0.72-0.46,1.55-0.21,2.33c0.24,0.78,0.78,1.42,1.5,1.8c0.72,0.38,1.55,0.46,2.33,0.21c0.78-0.24,1.42-0.78,1.8-1.5
			c0.38-0.72,0.46-1.55,0.21-2.33C55.58,84.22,54.37,83.38,53.06,83.38z"/>
	</g>
</g>
</svg>
