<?xml version="1.0" standalone="no"?>
<!DOCTYPE svg PUBLIC "-//W3C//DTD SVG 20010904//EN"
 "http://www.w3.org/TR/2001/REC-SVG-20010904/DTD/svg10.dtd">
<svg version="1.0" xmlns="http://www.w3.org/2000/svg"
 width="100.000000pt" height="100.000000pt" viewBox="0 0 100.000000 100.000000"
 preserveAspectRatio="xMidYMid meet">

<g transform="translate(0.000000,100.000000) scale(0.100000,-0.100000)"
fill="#000000" stroke="none">
<path d="M36 868 c-14 -19 -16 -72 -16 -370 0 -225 -4 -348 -10 -348 -5 0 -10
-4 -10 -10 0 -7 173 -10 500 -10 327 0 500 3 500 10 0 6 -4 10 -10 10 -6 0
-10 123 -10 348 0 376 -2 392 -54 392 -45 0 -56 -27 -56 -143 0 -88 -3 -107
-15 -107 -9 0 -15 9 -15 23 0 35 -19 47 -72 47 -43 0 -48 2 -48 23 0 38 -19
47 -100 47 -64 0 -80 -3 -95 -20 -9 -10 -15 -26 -12 -35 5 -10 0 -15 -14 -15
-11 0 -17 4 -14 10 4 6 -1 22 -9 35 -15 23 -23 25 -96 25 -73 0 -81 -2 -96
-25 -8 -13 -13 -29 -9 -35 4 -6 -11 -10 -42 -10 -54 0 -73 -12 -73 -47 0 -14
-6 -23 -15 -23 -12 0 -15 19 -15 108 0 93 -3 111 -18 125 -26 23 -58 21 -76
-5z m64 -359 l0 -349 -25 0 -25 0 0 343 c0 347 3 373 36 360 12 -4 14 -67 14
-354z m850 -5 l0 -344 -25 0 -25 0 0 349 c0 270 3 350 13 354 35 13 37 -9 37
-359z m-495 226 c0 -12 -16 -16 -69 -18 -69 -3 -95 6 -81 28 4 7 33 10 78 8
56 -2 72 -6 72 -18z m240 0 c0 -12 -16 -16 -69 -18 -69 -3 -95 6 -81 28 4 7
33 10 78 8 56 -2 72 -6 72 -18z m-357 -67 c-3 -15 -15 -18 -68 -21 -67 -2 -98
7 -86 27 4 6 38 11 82 11 66 0 75 -2 72 -17z m55 -3 c4 -15 0 -20 -13 -20 -13
0 -17 5 -13 20 3 11 9 20 13 20 4 0 10 -9 13 -20z m182 0 c0 -12 -15 -15 -75
-15 -64 0 -75 3 -78 18 -3 16 4 18 75 15 61 -2 78 -6 78 -18z m58 0 c4 -15 0
-20 -13 -20 -13 0 -18 7 -17 20 1 11 7 20 13 20 6 0 14 -9 17 -20z m183 9 c12
-20 -19 -29 -86 -27 -53 3 -65 6 -68 21 -3 15 6 17 72 17 44 0 78 -5 82 -11z
m54 -76 l0 -23 -370 0 -370 0 0 23 0 22 370 0 370 0 0 -22z m0 -138 c0 -68 -3
-85 -15 -85 -8 0 -12 6 -9 14 10 27 -32 56 -81 56 -32 0 -43 4 -39 13 2 7 -2
21 -10 32 -12 17 -26 20 -96 20 -70 0 -84 -3 -96 -20 -8 -11 -12 -25 -10 -32
3 -7 -1 -13 -8 -13 -8 0 -17 11 -20 25 -9 34 -47 48 -123 43 -67 -4 -83 -13
-86 -47 -1 -17 -8 -21 -40 -21 -51 0 -77 -15 -77 -45 0 -16 -6 -25 -15 -25
-12 0 -15 16 -15 85 l0 85 370 0 370 0 0 -85z m-412 3 c3 -16 -6 -18 -72 -18
-41 0 -78 5 -81 10 -14 22 9 31 78 28 59 -2 72 -6 75 -20z m237 2 c0 -12 -16
-16 -69 -18 -69 -3 -95 6 -81 28 4 7 33 10 78 8 56 -2 72 -6 72 -18z m-357
-72 c3 -16 -6 -18 -72 -18 -41 0 -78 5 -81 10 -14 22 9 31 78 28 59 -2 72 -6
75 -20z m58 2 c0 -11 -6 -20 -13 -20 -7 0 -13 9 -13 20 0 11 6 20 13 20 7 0
13 -9 13 -20z m179 0 c0 -12 -16 -16 -69 -18 -69 -3 -95 6 -81 28 4 7 33 10
78 8 56 -2 72 -6 72 -18z m61 0 c0 -12 -7 -20 -16 -20 -9 0 -16 8 -16 20 0 12
7 20 16 20 9 0 16 -8 16 -20z m179 0 c0 -12 -16 -16 -69 -18 -69 -3 -95 6 -81
28 4 7 33 10 78 8 56 -2 72 -6 72 -18z m55 -70 c0 -20 -7 -20 -370 -20 -363 0
-370 0 -370 20 0 20 7 20 370 20 363 0 370 0 370 -20z m0 -110 l0 -60 -370 0
-370 0 0 60 0 60 370 0 370 0 0 -60z"/>
</g>
</svg>
