<?xml version="1.0" standalone="no"?>
<!DOCTYPE svg PUBLIC "-//W3C//DTD SVG 20010904//EN"
 "http://www.w3.org/TR/2001/REC-SVG-20010904/DTD/svg10.dtd">
<svg version="1.0" xmlns="http://www.w3.org/2000/svg"
 width="100.000000pt" height="100.000000pt" viewBox="0 0 100.000000 100.000000"
 preserveAspectRatio="xMidYMid meet">

<g transform="translate(0.000000,100.000000) scale(0.100000,-0.100000)"
fill="#000000" stroke="none">
<path d="M235 812 l-230 -97 0 -54 c0 -54 5 -62 48 -75 16 -5 17 -23 17 -232
-1 -250 0 -254 62 -269 l28 -7 0 196 0 196 340 0 340 0 2 -192 3 -193 25 3
c14 1 35 14 48 28 21 24 22 31 22 250 0 212 1 224 19 224 30 0 42 25 39 77
l-3 48 -235 97 c-129 54 -248 97 -265 97 -16 0 -133 -44 -260 -97z m85 -182
l0 -40 -80 0 -80 0 0 33 c0 19 3 37 7 40 3 4 39 7 80 7 l73 0 0 -40z m260 0
l0 -40 -80 0 -80 0 0 40 0 40 80 0 80 0 0 -40z m260 0 l0 -40 -80 0 -80 0 0
40 0 40 80 0 80 0 0 -40z"/>
<path d="M332 422 c-9 -6 -12 -29 -10 -78 l3 -69 80 0 80 0 3 69 c3 73 -3 86
-45 86 -17 0 -22 -7 -25 -32 -3 -38 -23 -36 -23 2 -1 19 -6 26 -25 28 -14 1
-31 -2 -38 -6z"/>
<path d="M527 423 c-4 -3 -7 -40 -7 -80 l0 -74 83 3 82 3 3 63 c3 72 -8 95
-47 90 -21 -2 -27 -9 -29 -35 -4 -44 -22 -42 -22 2 0 32 -3 35 -28 35 -16 0
-32 -3 -35 -7z"/>
<path d="M238 239 c-27 -15 -26 -134 1 -149 31 -16 127 -13 145 6 22 22 22
117 0 139 -27 27 -58 15 -62 -22 -2 -18 -7 -33 -12 -33 -5 0 -10 15 -12 33 -3
35 -28 46 -60 26z"/>
<path d="M426 234 c-11 -10 -16 -34 -16 -69 0 -70 15 -85 86 -85 85 0 94 9 94
86 0 59 -2 65 -24 76 -35 16 -56 4 -56 -32 0 -16 -4 -30 -10 -30 -5 0 -10 16
-10 35 0 30 -3 35 -24 35 -14 0 -32 -7 -40 -16z"/>
<path d="M628 239 c-14 -8 -18 -24 -18 -72 0 -36 5 -68 12 -75 13 -13 126 -16
145 -4 7 4 13 36 14 76 2 72 -5 86 -48 86 -20 0 -23 -5 -23 -35 0 -44 -18 -46
-22 -2 -3 35 -28 46 -60 26z"/>
</g>
</svg>
